<svg id="Layer_1" data-name="Layer 1" xmlns="http://www.w3.org/2000/svg" viewBox="0 0 100 707"><defs><style>.cls-2{fill:#205570}.cls-3{fill:#fff}</style></defs><path fill="#142151" d="M0 0h100v707H0z"/><path class="cls-2" d="M100 642.95v-9.9l-49 49-51-51v9.9l51 51 49-49z"/><path class="cls-2" d="M100 612.95v-9.9l-49 49-51-51v9.9l51 51 49-49z"/><path class="cls-2" d="M100 582.95v-9.9l-49 49-51-51v9.9l51 51 49-49z"/><path class="cls-2" d="M100 551.95v-9.9l-49 49-51-51v9.9l51 51 49-49z"/><path class="cls-2" d="M100 521.95v-9.9l-49 49-51-51v9.9l51 51 49-49z"/><path class="cls-2" d="M100 491.95v-9.9l-49 49-51-51v9.9l51 51 49-49z"/><path class="cls-2" d="M100 460.95v-9.9l-49 49-51-51v9.9l51 51 49-49z"/><path class="cls-2" d="M100 430.95v-9.9l-49 49-51-51v9.9l51 51 49-49z"/><path class="cls-2" d="M100 400.95v-9.9l-49 49-51-51v9.9l51 51 49-49z"/><path class="cls-2" d="M100 369.95v-9.9l-49 49-51-51v9.9l51 51 49-49z"/><path class="cls-2" d="M100 339.95v-9.9l-49 49-51-51v9.9l51 51 49-49z"/><path class="cls-2" d="M100 309.95v-9.9l-49 49-51-51v9.9l51 51 49-49z"/><path class="cls-2" d="M100 278.95v-9.9l-49 49-51-51v9.9l51 51 49-49z"/><path class="cls-2" d="M100 248.95v-9.9l-49 49-51-51v9.9l51 51 49-49z"/><path class="cls-2" d="M100 218.95v-9.9l-49 49-51-51v9.9l51 51 49-49z"/><path class="cls-2" d="M100 187.95v-9.9l-49 49-51-51v9.9l51 51 49-49z"/><path class="cls-2" d="M100 157.95v-9.9l-49 49-51-51v9.9l51 51 49-49z"/><path class="cls-2" d="M100 127.95v-9.9l-49 49-51-51v9.9l51 51 49-49z"/><path class="cls-2" d="M100 96.95v-9.9l-49 49-51-51v9.9l51 51 49-49z"/><path class="cls-2" d="M100 66.95v-9.9l-49 49-51-51v9.9l51 51 49-49z"/><path class="cls-2" d="M100 35.95v-9.9l-49 49-51-51v9.9l51 51 49-49z"/><path class="cls-2" d="M100 5.95V0h-3.95L51 45.05 5.95 0H0v3.95l51 51 49-49z"/><path class="cls-2" d="M75.95 0h-9.9L51 15.05 35.95 0h-9.9L51 24.95 75.95 0zM100 703.95v-9.9L87.05 707h9.9l3.05-3.05zM0 692.05v9.9L5.05 707h9.9L0 692.05zm100-18.1v-9.9L57.05 707h9.9L100 673.95zM0 662.05v9.9L35.05 707h9.9L0 662.05z"/><path class="cls-3" d="M24.14 275.67H19.9v2.53h3.92v2.56H19.9v5.46h-3v-13.1h7.27zm13.29 5.2A5.59 5.59 0 0 1 36 285a5.26 5.26 0 0 1-4.09 1.49 5.24 5.24 0 0 1-4.1-1.49 5.57 5.57 0 0 1-1.46-4.15v-7.75h3v7.68a3.09 3.09 0 0 0 .69 2.2 2.79 2.79 0 0 0 3.65 0 3.09 3.09 0 0 0 .69-2.2v-7.68h3zm7.46-5.2v10.55h-3v-10.55H39v-2.55h8.72v2.55zm15.51 5.2A5.55 5.55 0 0 1 59 285a5.26 5.26 0 0 1-4.09 1.49 5.25 5.25 0 0 1-4.13-1.49 5.55 5.55 0 0 1-1.45-4.15v-7.75h3v7.68A3.09 3.09 0 0 0 53 283a2.79 2.79 0 0 0 3.65 0 3.09 3.09 0 0 0 .69-2.2v-7.68h3zm7.46-7.75a4.69 4.69 0 0 1 3.34 1.14 3.94 3.94 0 0 1 1.14 2.92 3.58 3.58 0 0 1-1 2.67 4 4 0 0 1-1.83 1l4 5.37h-3.68l-3.54-5.17v5.17h-3v-13.1zm-1.57 5.95H67a2.47 2.47 0 0 0 1.8-.57 1.76 1.76 0 0 0 .5-1.28 1.58 1.58 0 0 0-.61-1.33 2.92 2.92 0 0 0-1.67-.42h-.71zm16.3-3.4h-4.38v2.53h4.16v2.56h-4.16v2.9h4.38v2.56h-7.41v-13.1h7.41zm-57.26 26h5.23v-5h3v13.1h-3v-5.56h-5.23v5.56h-3v-13.1h3zm22.72-3.38a7 7 0 0 1 0 9.86 7 7 0 0 1-5.05 1.92 7.22 7.22 0 0 1-5.11-1.92 6.68 6.68 0 0 1-2-4.87 7.3 7.3 0 0 1 2-5 7 7 0 0 1 5.11-1.9 7 7 0 0 1 5.05 1.91zm-7.95 2a4 4 0 0 0-1.16 3 3.88 3.88 0 0 0 1.2 2.94 3.83 3.83 0 0 0 2.86 1.05 3.87 3.87 0 0 0 4-4 4.13 4.13 0 0 0-1.14-2.95 4.18 4.18 0 0 0-2.86-1.16 4 4 0 0 0-2.9 1.12zm11.64 9.49l2.1-13.1h2.52l3.26 7.83 3.26-7.83h2.51l2.1 13.1h-3l-1-7.82-3.28 7.82h-1.12L55.81 302l-1.05 7.82zm25.41-10.55h-4.38v2.53h4.16v2.56h-4.16v2.9h4.38v2.56h-7.41v-13.1h7.41zm-46.08 22.62a7 7 0 0 1 0 9.86 7 7 0 0 1-5.07 1.92 7.21 7.21 0 0 1-5.1-1.92 6.69 6.69 0 0 1-2-4.87 7.31 7.31 0 0 1 2-5 7 7 0 0 1 5.1-1.9 7 7 0 0 1 5.07 1.91zm-7.95 2a4 4 0 0 0-1.16 3 3.87 3.87 0 0 0 1.2 2.94 3.81 3.81 0 0 0 2.8 1.08 4 4 0 0 0 2.91-1.12A3.91 3.91 0 0 0 30 326.8a4.13 4.13 0 0 0-1.14-2.95 4.2 4.2 0 0 0-2.86-1.12 4 4 0 0 0-2.88 1.12zm19.51-1.06h-4.24v2.54h3.93v2.55h-3.93v5.46h-3v-13.1h7.26zm11.37 0v10.55h-3v-10.55h-2.85v-2.55h8.72v2.55zm7.48 2.44h5.22v-5h3v13.1h-3v-5.56h-5.22v5.56h-3v-13.1h3zM80 322.79h-4.38v2.54h4.16v2.55h-4.16v2.9H80v2.56h-7.41v-13.1H80zM21.57 343.8v10.55h4.07v2.55h-7.09v-13.1zm8.86 0v13.1h-3v-13.1zm4.83 0l3.32 8.38 3.32-8.38h3.26l-5.56 13.1h-2L32 343.8zm14.49 0v13.1h-3v-13.1zm2.92 13.1v-13.1h2.63l7.11 8.44v-8.44h3v13.1h-2.6l-7.11-8.49v8.49zm21.94-7.15h6.5v.14a8.51 8.51 0 0 1-2 5.52 6 6 0 0 1-4.67 1.78 6.15 6.15 0 0 1-4.79-1.82 7.45 7.45 0 0 1 0-10 6.73 6.73 0 0 1 5.14-1.91 6.6 6.6 0 0 1 3.68 1 7.3 7.3 0 0 1 2.12 2.33l-2.73 1.48a4.11 4.11 0 0 0-1.16-1.42 3.31 3.31 0 0 0-2-.63 3.55 3.55 0 0 0-2.71 1.06 4.49 4.49 0 0 0-1.12 3.11 4.11 4.11 0 0 0 1.1 3 4 4 0 0 0 4.93.32 3.17 3.17 0 0 0 .94-1.56h-3.23zm-39.56 23.56h6.5v.14a8.47 8.47 0 0 1-2 5.52 6 6 0 0 1-4.67 1.79 6.16 6.16 0 0 1-4.79-1.83 7.45 7.45 0 0 1 0-10 6.73 6.73 0 0 1 5.14-1.91 6.55 6.55 0 0 1 3.67 1 7.34 7.34 0 0 1 2.1 2.36l-2.73 1.48a4.11 4.11 0 0 0-1.16-1.42 3.31 3.31 0 0 0-2-.62 3.55 3.55 0 0 0-2.71 1.06 4.49 4.49 0 0 0-1.12 3.1 4.11 4.11 0 0 0 1.1 3A3.43 3.43 0 0 0 35 378a3.38 3.38 0 0 0 2.28-.7 3.08 3.08 0 0 0 .95-1.55h-3.18zM55.42 369a6.85 6.85 0 0 1 2 4.95 6.78 6.78 0 0 1-2 4.91 7 7 0 0 1-5.07 1.93 7.22 7.22 0 0 1-5.11-1.93 6.72 6.72 0 0 1-2-4.87 7.3 7.3 0 0 1 2-5 7.07 7.07 0 0 1 5.13-1.93 7 7 0 0 1 5.05 1.94zm-8 2a4 4 0 0 0-1.16 3 3.94 3.94 0 0 0 1.2 2.95 3.89 3.89 0 0 0 2.85 1.05 4 4 0 0 0 2.91-1.12 3.94 3.94 0 0 0 1.14-2.93 4.13 4.13 0 0 0-1.14-2.95 4.25 4.25 0 0 0-2.89-1.12 4.06 4.06 0 0 0-2.87 1.12zm16.44-3.64a6.91 6.91 0 0 1 5.14 1.81 6.83 6.83 0 0 1 .1 9.33 7.09 7.09 0 0 1-5.17 2h-4.22v-13.1zm-1.12 10.55h.8a4.71 4.71 0 0 0 3-.89 4.12 4.12 0 0 0 1.27-3.16 3.89 3.89 0 0 0-1.09-2.86 4.32 4.32 0 0 0-3.18-1.12h-.8zM38.8 36.42h39.56V21.14H23.94V50H38.8zM28 45.89V25.24h46.26v7.07H34.69v13.58zm51.19 31.18c0-16-12.07-28.15-28.07-28.15S23 61 23 77.07s12.07 28.15 28.08 28.15 28.11-12.1 28.11-28.15zm-52 0c0-13.86 10.39-24 24-24s24 10.18 24 24-10.39 24.05-24 24.05-24.05-10.19-24.05-24.05z"/><path class="cls-3" d="M68.58 77.07c0-9.91-7.21-17-17.46-17s-17.46 7.06-17.46 17 7.2 17 17.46 17 17.46-7.07 17.46-17zm-30.82 0c0-7.7 5.37-12.87 13.36-12.87s13.35 5.17 13.35 12.87-5.37 12.87-13.35 12.87-13.36-5.17-13.36-12.87zm40.6 60.75h-32c-2.19 0-4.45-.07-5.88-.89a6 6 0 0 1-.05-10.08c1.48-.84 3.74-.91 5.93-.91h32v-15.28H44.53A21.18 21.18 0 0 0 29.77 116a22 22 0 0 0 0 31.69 21.17 21.17 0 0 0 14.75 5.37h33.84zM44.53 149a17.1 17.1 0 0 1-12-4.29 17.89 17.89 0 0 1 0-25.64 17.1 17.1 0 0 1 12-4.29h29.73v7.06H46.4c-2.49 0-5.54.07-8 1.46a10.11 10.11 0 0 0 0 17.18c2.42 1.39 5.47 1.46 8 1.46h27.86V149zm33.83 11.76H23.94V176h54.42zM28 171.93v-7.07h46.26v7.07zm30.71 34.9l7 12 3.44-1.72a19.83 19.83 0 0 0 5.92-4.53 17.83 17.83 0 0 0 4.1-12c0-8.54-5.71-17.61-16.3-17.61-4.79 0-11.36 2.07-15.49 11.93l-.16.39L44 180.62l-3.59.31a19.16 19.16 0 0 0-11.39 4.91 17.67 17.67 0 0 0-6 13.94c0 11 8 19 18.93 19 7.59 0 13.05-3.91 16.76-11.95zm-31.57-7.05a13.55 13.55 0 0 1 4.64-10.88 15 15 0 0 1 9-3.88l1.53 7a10 10 0 0 0-5.88 1.98 7.28 7.28 0 0 0-2.77 6 7.42 7.42 0 0 0 7.76 7.62c4.71 0 6.65-3.6 7.89-6.65l1.87-4.43c1.6-3.82 4.79-9.43 11.71-9.43 6.24 0 12.2 4.85 12.2 13.51A13.64 13.64 0 0 1 72 209.9a15.69 15.69 0 0 1-4.64 3.53L64 207.75a7.18 7.18 0 0 0 4.58-7.07c0-4.29-2.57-6.51-5.55-6.51-1.38 0-3.81.48-5.61 5l-1.87 4.64c-3.46 8.52-8.32 10.88-13.58 10.88-8.8-.01-14.83-6.25-14.83-14.91zm15.18-3.65h4.58l-1.39 3.28c-1.41 3.46-2.49 4.1-4.09 4.1a3.33 3.33 0 0 1-3.66-3.51 3.19 3.19 0 0 1 1.15-2.76 5.89 5.89 0 0 1 3.41-1.11zm17.11 9l1.8-4.48c.16-.4 1-2.41 1.8-2.41 1 0 1.44.81 1.44 2.41a3.33 3.33 0 0 1-.7 2.35 3.24 3.24 0 0 1-1.29.91zm4.07 52.8h14.86v-33.71H23.94v33.71H38.8V239.5h6.34v17.88H60V239.5h3.5zm-7.6-4.66h-6.66V235.4H34.69v18.43H28v-25.5h46.26v25.5h-6.65V235.4H55.9zm7.6 177.21h14.86v-33.71H23.94v33.71H38.8v-18.43h6.34v17.88H60v-17.88h3.5zm-7.6-4.66h-6.66V408H34.69v18.43H28v-25.5h46.26v25.5h-6.65V408H55.9zm4.71 33.61c6.51 0 7.14-6.17 7.14-9.63v-2.43H53.06v2.22c0 1.94.2 9.84 7.55 9.84zm-3.34-7.95h6.3c-.34 3.84-1.89 3.84-3 3.84-.79 0-2.81 0-3.3-3.84zm7.15 53.05c2.91-4 3.19-8.93 3.19-12.33v-3.05H34.69v3.05c0 3.47.28 8.25 3.26 12.27a16.32 16.32 0 0 0 13.17 6.3 16.47 16.47 0 0 0 13.3-6.24zM41.25 502c-1.93-2.6-2.37-5.81-2.44-8.76h24.68c-.07 2.87-.5 6.25-2.39 8.86a12.3 12.3 0 0 1-10 4.55 12.18 12.18 0 0 1-9.85-4.65z"/><path class="cls-3" d="M73.05 511.42c4.67-6.28 5.31-13.15 5.31-19.63V478H24.59L46 462.36a16.77 16.77 0 0 0 14.7 8c2.82 0 9.87-.71 14.28-7.28 2.42-3.58 3.4-7.78 3.4-14.49V436.2H23.94v15.28h11.77l-11.77 8.24v31.93c0 7.36.87 13.15 5.18 19.27 5 7.11 12.82 11 22 11a27 27 0 0 0 21.93-10.5zM28 461.85l19-13.23v-1.25H28v-7.07h46.26v8.25c0 5.61-.69 9.22-2.7 12.19a12.91 12.91 0 0 1-10.88 5.48A12.68 12.68 0 0 1 47.79 456L28 470.38zm4.44 46.7c-3.81-5.4-4.44-10.46-4.44-16.9v-9.56h46.26v9.7c0 6.44-.69 12-4.51 17.18a22.86 22.86 0 0 1-18.63 8.87c-7.7 0-14.35-3.19-18.64-9.29zm28.17 42.06c6.51 0 7.14-6.16 7.14-9.63v-2.42H53.06v2.21c0 1.94.2 9.84 7.55 9.84zm-3.34-8h6.3c-.34 3.85-1.89 3.85-3 3.85-.79.05-2.81.05-3.3-3.8z"/><path class="cls-3" d="M78.36 569.16H24.59L46 553.55a16.79 16.79 0 0 0 14.7 8c2.82 0 9.87-.71 14.28-7.29 2.42-3.58 3.4-7.78 3.4-14.49v-12.39H23.94v15.28h11.77l-11.77 8.24v33.54h54.42zM28 553l19-13.2v-1.24H28v-7.07h46.26v8.24c0 5.62-.69 9.22-2.7 12.2a12.89 12.89 0 0 1-10.88 5.47 12.68 12.68 0 0 1-12.89-10.25L28 561.56zm0 27.3v-7.07h46.26v7.07zm36.47 37.59c0 1.31 0 5.3-4.06 9.79l-6.22 6.86H74l1.21-1.9a25.87 25.87 0 0 0 4-14.54c0-8.14-2.27-14.34-7.15-19.52-3.75-4-10.46-8.7-21.06-8.7a26.61 26.61 0 0 0-20.44 8.69A27.31 27.31 0 0 0 23 617.75a29.34 29.34 0 0 0 4 14.79l1.2 2h20.33L42 627.61a14.24 14.24 0 0 1-4.24-9.61c0-7.42 5.56-12.8 13.22-12.8 8.07-.04 13.49 5.08 13.49 12.69zM51 601.05c-9.77 0-17.32 7.07-17.32 16.91A18.35 18.35 0 0 0 39 630.43h-8.39a25.13 25.13 0 0 1-3.47-12.68 23.12 23.12 0 0 1 6.38-16.35A22.65 22.65 0 0 1 51 594a24.17 24.17 0 0 1 18.08 7.41c4.51 4.78 6 10.32 6 16.7a21.9 21.9 0 0 1-3.33 12.33h-8.3c4.64-5.13 5.13-9.91 5.13-12.54 0-10.06-7.42-16.85-17.58-16.85zm27.36 65.67H60.07v-11.6h18.29v-15.28H23.94v15.28h21.27v11.6H23.94V682h54.42zM28 677.9v-7.07h21.31V651H28v-7.07h46.26V651H56v19.82h18.26v7.07z"/></svg>