<svg id="Layer_1" data-name="Layer 1" xmlns="http://www.w3.org/2000/svg" viewBox="0 0 127 728"><defs><style>.cls-1{fill:#fff}.cls-3{stroke:#000;stroke-miterlimit:10;stroke-width:4px;fill:none}.cls-4{fill:#f9e638}.cls-5{fill:#f74239}</style></defs><path class="cls-1" d="M127 728H0V0h127v728z"/><path stroke="#000" stroke-miterlimit="10" stroke-width="4" fill="#fff" d="M23.42 0v39H0"/><path class="cls-3" d="M47.55 0v19H72v85H23v20H0"/><path class="cls-3" d="M47 39v44H0m23-44v22M99.25 0v39H127m0 22H99v63H23m24 0v41h52v54h28m-55-74h55m-80-1.34H23V200H0"/><path class="cls-3" d="M72 165v79h27v25H47v-85m-24 39v65H0m0 26.24h47V288h25v92H23v-42H0m47 0v42m80-92H99v50h28"/><path class="cls-3" d="M99 359v55H23v26h24v25h26v-25h54M23 465v22H0m75 4h27v-26h25m-80 26v44H23v60h52v-40h26v-39h26M25 571h23m27-55v39M0 512.32h25M127 595h-26v53H48v-26h27m-52 0v68h25v38m-25-15H0m75-65v20h26v29h26m-52 31v-60H48"/><circle class="cls-4" cx="61" cy="73" r="38"/><circle cx="63" cy="255" r="38"/><circle class="cls-5" cx="64" cy="451" r="38"/><circle class="cls-4" cx="64" cy="652" r="38"/><path class="cls-5" d="M69.59 81.13V66.19s.09-.1.12-.1a52.93 52.93 0 0 1 7.36.29c3.44.6 5.66 4 5.45 7.66s-2.78 6.73-6.31 7c-2.21.26-4.39.09-6.62.09zm7.47-7.26v-.34c-.3-.2-.56-.52-.88-.59-.48-.1-.75.28-.78.73a.67.67 0 0 0 .75.76c.33-.04.61-.36.91-.56zM37.18 76l3 5.27h-5.31a.89.89 0 0 1-.91-.51 9 9 0 0 0-1.15-1.63v2.09h-5.88V66.06h2.25c1.55 0 3.11-.06 4.66.08a5.31 5.31 0 0 1 4.73 3.63 5.51 5.51 0 0 1-1.1 5.88zm-2.76-4v-.35a2.9 2.9 0 0 0-.86-.58c-.48-.1-.75.25-.77.72a.66.66 0 0 0 .73.76c.32-.04.6-.37.9-.55zm15.9 3.36h-2.55c-.17 0-.33.2-.49.31.16.09.32.26.48.26h4.76c-.36 1.25-.7 2.45-1.05 3.65-.49 1.64-.49 1.64-2.22 1.64h-7.8V66.1h8.88a.72.72 0 0 1 .84.63c.42 1.54.89 3.06 1.36 4.65h-5.15c-.19.41-.14.62.33.62h2.61zm36.21 5.83v-5.48a2.73 2.73 0 0 0-.26-1.16c-1.32-2.78-2.67-5.54-4-8.36a1.46 1.46 0 0 1 .35-.1H88a.77.77 0 0 1 .57.37c.4.73.74 1.49 1.17 2.38.45-.84.82-1.6 1.25-2.32a.88.88 0 0 1 .56-.43h5.49c-.13.31-.22.54-.33.76A248.52 248.52 0 0 0 93 74.59a2.41 2.41 0 0 0-.23 1v5.58zm-18.34.04h-5.87c-.35-.78-.67-1.58-1.07-2.34a1.06 1.06 0 0 0-.7-.39c-.33 0-.7-.1-.88.37a19.19 19.19 0 0 1-.88 2 .77.77 0 0 1-.54.4h-5.51l7.74-16.09zm-7.88-5.15h.34c.2-.29.53-.56.58-.88a.67.67 0 0 0-.74-.76c-.46 0-.83.28-.76.75s.38.59.58.89z"/><path class="cls-1" d="M94 259.9h-4.46c-.14 0-.31-.18-.41-.32a10.88 10.88 0 0 0-1-1.35v1.65h-4.61v-12a.83.83 0 0 1 .21-.06c1.62 0 3.24-.05 4.85 0a4.55 4.55 0 0 1 3.28 7.63l-.2.24zm-4.54-7.36v-.27a2.29 2.29 0 0 0-.69-.47c-.38-.08-.6.2-.62.57a.54.54 0 0 0 .59.61c.26.02.48-.29.72-.44zm-15.88 7.35v-12a1.71 1.71 0 0 1 .3 0h6.9c.15 0 .4.11.44.23.4 1.29.78 2.6 1.18 3.95h-3.71c-.16 0-.31.15-.47.23.16.08.31.23.47.23h2v2.71h-2c-.13 0-.25.14-.38.21.13.08.26.24.39.24h3.79l-.94 3.18c-.3 1-.31 1-1.4 1h-6.57zM35.29 257v2.91h-4.62v-12s.08-.07.11-.07c1.83 0 3.66-.08 5.47.07a4.44 4.44 0 0 1 4 4.63 4.56 4.56 0 0 1-4.46 4.39zm1.33-4.47c-.13-.51-.34-.71-.72-.71a.55.55 0 0 0-.58.63.53.53 0 0 0 .62.57c.25-.08.46-.36.68-.53zM69 259.87h-4.89v-4.05a4.11 4.11 0 0 0-.34-1.52c-.91-2-1.88-3.93-2.83-5.9l-.25-.55h4.48a.53.53 0 0 1 .59.38c.26.58.56 1.15.89 1.83.35-.67.64-1.26 1-1.83.09-.15.29-.35.43-.36h4.4c-.1.24-.16.41-.24.57l-3 6.15a2 2 0 0 0-.2.87c-.04 1.44-.04 2.9-.04 4.41zm-6.34.03h-4.41a.57.57 0 0 1-.39-.3 12.57 12.57 0 0 1-.65-1.45.59.59 0 0 0-.67-.44.64.64 0 0 0-.73.46 11.67 11.67 0 0 1-.62 1.4.69.69 0 0 1-.48.33h-4.33l6.15-12.79zm-6-5.51h-.26c-.15.23-.41.46-.43.71a.52.52 0 0 0 .61.58c.39 0 .64-.27.57-.62s-.35-.45-.52-.67zm-10.74-6.52v7.8h4.18c-.3 1-.57 2-.85 2.92-.39 1.3-.39 1.3-1.76 1.3H41.3v-12z"/><path class="cls-4" d="M58.22 451.13a8.27 8.27 0 1 1-8.09-8.4 8.23 8.23 0 0 1 8.09 8.4zm-8.4.89h.33c.22-.33.56-.63.61-1s-.31-.8-.82-.79a.72.72 0 0 0-.78.84c.06.35.43.64.66.93zM59.7 442l6.9 5.24v-4.3h6.55v17.17L66 454.64v4.46h-6.3zm26.07 6.54h-4.31c-.22 0-.43.19-.64.3.21.11.41.31.62.31h2.64v3.66h-2.75c-.17 0-.34.18-.51.27.17.12.35.33.53.34h4.6c-.17 1.18-.28 2.28-.5 3.35-.16.77-.28 1.76-.8 2.17s-1.46.13-2.22.14h-7.85V443h9.49c.51 0 .77.11.91.65.37 1.48 1 2.9.83 4.48-.02.04-.02.19-.04.41z"/><path d="M54.33 649v-13l5.25 4v-3.22h5v13l-5.46-4.15V649zm23.12 16.39L72 661.22v3.41h-4.79v-13l5.25 4v-3.24h5zm-24.17-16.34h-4.57a.5.5 0 0 1-.33-.23c-.34-.51-.66-1-1.06-1.67V649h-4.77v-12.23a2.2 2.2 0 0 1 .36 0h4.69a4.57 4.57 0 0 1 4.65 3.85 4.47 4.47 0 0 1-1.11 3.88l-.22.25v.07zm-4.72-7.69a.64.64 0 0 0-.64-.62.63.63 0 0 0-.61.65.63.63 0 0 0 1.25 0zM50.15 656l-5.08 2.24c-.52-.39-.85-.43-1.12-.12a.65.65 0 0 0 0 .87c.29.28.64.22 1-.18l5 2.39c-.56 2.12-3.63 3.84-6.33 3.56a6.29 6.29 0 0 1-.46-12.43 6.18 6.18 0 0 1 6.99 3.67zm-17.74-7v-12.25h7.36a.47.47 0 0 1 .54.41c.33 1.19.7 2.38 1 3.57l.07.28H37.2v.51h2.46v2.76H37.2v.48h4.24c-.21.75-.41 1.45-.62 2.14s-.38 1.24-.55 1.87c-.06.19-.12.3-.36.3h-7.35zM73 644.25h-2.51v.49h4.25c-.22.74-.42 1.44-.62 2.14s-.38 1.24-.56 1.86c-.06.2-.13.3-.36.3h-7.49v-12.31h7.36a.48.48 0 0 1 .54.41c.33 1.19.69 2.36 1 3.54a3 3 0 0 1 .08.32H70.5v.5H73zm5.57 20.4v-12.28h7.35a.49.49 0 0 1 .56.43c.36 1.26.74 2.52 1.13 3.83h-4.25v.5h2.46v2.76h-2.45v.49h4.25c0 .14 0 .24-.07.34-.36 1.22-.71 2.44-1.09 3.65a.49.49 0 0 1-.33.3c-2.53-.02-5.02-.02-7.56-.02zm6.34-25.93l-1.6 1.5-.12-.19a.57.57 0 0 0-.71-.27.92.92 0 0 0-.45.42.57.57 0 0 0 .27.72 4.59 4.59 0 0 1 1.62 1.74A4.5 4.5 0 0 1 81 649a4.86 4.86 0 0 1-5.15-1.69l1.49-1.31a.42.42 0 0 1 .29 0 .68.68 0 0 0 .92-.3.61.61 0 0 0-.3-.84 4.41 4.41 0 0 1-2.1-3.41 4.56 4.56 0 0 1 3.71-4.79 4.85 4.85 0 0 1 5.05 2.06zM93.5 649h-5v-8H86l1-4.25h7.64c.32 0 .45.09.52.42.27 1.26.58 2.52.89 3.83H93.5zM56 652.37v8h4.27c-.21.74-.41 1.42-.61 2.1s-.38 1.3-.59 1.94a.4.4 0 0 1-.29.25h-7.53v-12.29zm5.4-.01h4.72v12.26H61.4z"/></svg>