<svg id="Layer_1" data-name="Layer 1" xmlns="http://www.w3.org/2000/svg" viewBox="0 0 387 222">
  <title>oologo</title>
  <g>
    <g>
      <path d="M25.36,53.93A28.6,28.6,0,1,1,54,82.53,28.68,28.68,0,0,1,25.36,53.93ZM79,103.43H28.22V90.67H79ZM38.12,53.93A15.84,15.84,0,1,0,54,38.09,15.77,15.77,0,0,0,38.12,53.93Z"/>
      <path d="M110.83,26.43c18.7,0,45,4.29,45,38.5,0,32.89-25.85,38.5-45,38.5H98v-77Zm32,38.5c0-30.8-32-26-32-26V90.89S142.84,95.29,142.84,64.93Z"/>
      <path d="M171.1,26.43H184v77H171.1Z"/>
      <path d="M265.7,103.43h-13L214.44,48.65v54.78H201.57v-77h13l38.39,54.78V26.43H265.7Z"/>
      <path d="M352.71,103.43l-9.13-9.13c-10.78,13.64-32.89,12-42-.77-7.59-10.78-5.39-24.64,4.95-33.66a19.26,19.26,0,1,1,31.68-14.74,19.41,19.41,0,0,1-9.57,16.72L340.28,74V59.1h20.46V70.65h-9.68v6.6a17.34,17.34,0,0,1-1,5.39L361.84,94.3ZM312.45,85.5c4.62,6.27,16.39,7.59,22-.33L316.63,67.9C310.58,72,307.72,79.23,312.45,85.5Zm-.55-40.37a7,7,0,1,0,14.08,0,7,7,0,0,0-14.08,0Z"/>
      <path d="M25.36,146.93A28.6,28.6,0,1,1,54,175.53,28.68,28.68,0,0,1,25.36,146.93ZM79,196.43H28.22V183.67H79Zm-40.92-49.5A15.84,15.84,0,1,0,54,131.09,15.77,15.77,0,0,0,38.12,146.93Z"/>
      <path d="M95.21,175.09h12.87c.22,6.38,5.5,9.57,11.22,9.57,5.94,0,11.22-3.85,11.22-9.9,0-6.49-6.05-10.45-11.22-10.67a29.49,29.49,0,0,1-11.55-2.53c-8-3.74-12.54-10.56-12.54-19.69,0-14.63,11.66-23.54,24.09-23.54,13.31,0,23.54,9,23.76,22.11H130.3c-.22-6.38-5.17-9.24-11-9.24-6,0-11.22,3.52-11.22,10.67,0,6.38,5.5,9.79,11.22,9.79a29.11,29.11,0,0,1,11.44,2.53c8.14,3.74,12.54,11.44,12.54,20.57,0,14.74-11.55,22.77-24,22.77C106,197.2,95.43,189.5,95.21,175.09Z"/>
      <path d="M226,152.65v43.89H214.78l-.66-7c-6.27,5.83-12.76,8-21.89,8-20.68,0-36.85-14.41-36.85-39.6,0-22.88,17.27-39.6,38.5-39.6a37.87,37.87,0,0,1,27.17,11.33l-9,9a25.7,25.7,0,0,0-18.15-7.48c-14.19,0-25.63,9.9-25.63,26.73,0,18.81,11.44,26.73,25.63,26.73A25.38,25.38,0,0,0,213.13,176V164H192.67V152.65Z"/>
      <path d="M278.24,187.52H251.18l-3.3,8.91H234l30.69-79.2,30.8,79.2H281.65Zm-22.88-11.11h18.7l-9.35-26.73Z"/>
      <path d="M344.57,196.43l-20-32.12h-7.37v32.12H304.31V151.55h12.21L304.31,132.3V119.43h25.63s25.74,0,25.74,22.44c0,13.64-9.46,19-16.94,21.12l20.9,33.44Zm-13-45c3.41-.33,11.22-2,11.22-9.57,0-9.57-12.87-9.57-12.87-9.57H319.6Z"/>
    </g>
    <path d="M387,222H0V0H387ZM13,209H374V13H13Z"/>
  </g>
</svg>
