<svg id="Layer_1" data-name="Layer 1" xmlns="http://www.w3.org/2000/svg" viewBox="0 0 100 707">
  <defs>
    <style>
      .cls-1 {
        fill: #142151;
      }

      .cls-2 {
        fill: #205570;
      }

      .cls-3 {
        fill: #fff;
      }
    </style>
  </defs>
  <title>book</title>
  <rect class="cls-1" width="100" height="707"/>
  <g>
    <polygon class="cls-2" points="100 642.95 100 633.05 51 682.05 0 631.05 0 640.95 51 691.95 100 642.95"/>
    <polygon class="cls-2" points="100 612.95 100 603.05 51 652.05 0 601.05 0 610.95 51 661.95 100 612.95"/>
    <polygon class="cls-2" points="100 582.95 100 573.05 51 622.05 0 571.05 0 580.95 51 631.95 100 582.95"/>
    <polygon class="cls-2" points="100 551.95 100 542.05 51 591.05 0 540.05 0 549.95 51 600.95 100 551.95"/>
    <polygon class="cls-2" points="100 521.95 100 512.05 51 561.05 0 510.05 0 519.95 51 570.95 100 521.95"/>
    <polygon class="cls-2" points="100 491.95 100 482.05 51 531.05 0 480.05 0 489.95 51 540.95 100 491.95"/>
    <polygon class="cls-2" points="100 460.95 100 451.05 51 500.05 0 449.05 0 458.95 51 509.95 100 460.95"/>
    <polygon class="cls-2" points="100 430.95 100 421.05 51 470.05 0 419.05 0 428.95 51 479.95 100 430.95"/>
    <polygon class="cls-2" points="100 400.95 100 391.05 51 440.05 0 389.05 0 398.95 51 449.95 100 400.95"/>
    <polygon class="cls-2" points="100 369.95 100 360.05 51 409.05 0 358.05 0 367.95 51 418.95 100 369.95"/>
    <polygon class="cls-2" points="100 339.95 100 330.05 51 379.05 0 328.05 0 337.95 51 388.95 100 339.95"/>
    <polygon class="cls-2" points="100 309.95 100 300.05 51 349.05 0 298.05 0 307.95 51 358.95 100 309.95"/>
    <polygon class="cls-2" points="100 278.95 100 269.05 51 318.05 0 267.05 0 276.95 51 327.95 100 278.95"/>
    <polygon class="cls-2" points="100 248.95 100 239.05 51 288.05 0 237.05 0 246.95 51 297.95 100 248.95"/>
    <polygon class="cls-2" points="100 218.95 100 209.05 51 258.05 0 207.05 0 216.95 51 267.95 100 218.95"/>
    <polygon class="cls-2" points="100 187.95 100 178.05 51 227.05 0 176.05 0 185.95 51 236.95 100 187.95"/>
    <polygon class="cls-2" points="100 157.95 100 148.05 51 197.05 0 146.05 0 155.95 51 206.95 100 157.95"/>
    <polygon class="cls-2" points="100 127.95 100 118.05 51 167.05 0 116.05 0 125.95 51 176.95 100 127.95"/>
    <polygon class="cls-2" points="100 96.95 100 87.05 51 136.05 0 85.05 0 94.95 51 145.95 100 96.95"/>
    <polygon class="cls-2" points="100 66.95 100 57.05 51 106.05 0 55.05 0 64.95 51 115.95 100 66.95"/>
    <polygon class="cls-2" points="100 35.95 100 26.05 51 75.05 0 24.05 0 33.95 51 84.95 100 35.95"/>
    <polygon class="cls-2" points="100 5.95 100 0 96.05 0 51 45.05 5.95 0 0 0 0 3.95 51 54.95 100 5.95"/>
    <polygon class="cls-2" points="75.95 0 66.05 0 51 15.05 35.95 0 26.05 0 51 24.95 75.95 0"/>
    <polygon class="cls-2" points="100 703.95 100 694.05 87.05 707 96.95 707 100 703.95"/>
    <polygon class="cls-2" points="0 692.05 0 701.95 5.05 707 14.95 707 0 692.05"/>
    <polygon class="cls-2" points="100 673.95 100 664.05 57.05 707 66.95 707 100 673.95"/>
    <polygon class="cls-2" points="0 662.05 0 671.95 35.05 707 44.95 707 0 662.05"/>
  </g>
  <g>
    <g>
      <path class="cls-3" d="M24.14,275.67H19.9v2.53h3.92v2.56H19.9v5.46h-3v-13.1h7.27Z"/>
      <path class="cls-3" d="M37.43,280.87A5.59,5.59,0,0,1,36,285a5.26,5.26,0,0,1-4.09,1.49A5.24,5.24,0,0,1,27.81,285a5.57,5.57,0,0,1-1.46-4.15v-7.75h3v7.68a3.09,3.09,0,0,0,.69,2.2,2.79,2.79,0,0,0,3.65,0,3.09,3.09,0,0,0,.69-2.2v-7.68h3Z"/>
      <path class="cls-3" d="M44.89,275.67v10.55h-3V275.67H39v-2.55h8.72v2.55Z"/>
      <path class="cls-3" d="M60.4,280.87A5.55,5.55,0,0,1,59,285a5.26,5.26,0,0,1-4.09,1.49A5.25,5.25,0,0,1,50.78,285a5.55,5.55,0,0,1-1.45-4.15v-7.75h3v7.68A3.09,3.09,0,0,0,53,283a2.79,2.79,0,0,0,3.65,0,3.09,3.09,0,0,0,.69-2.2v-7.68h3Z"/>
      <path class="cls-3" d="M67.86,273.12a4.69,4.69,0,0,1,3.34,1.14,3.94,3.94,0,0,1,1.14,2.92,3.58,3.58,0,0,1-1,2.67,4,4,0,0,1-1.83,1l4,5.37H69.83l-3.54-5.17v5.17h-3v-13.1Zm-1.57,5.95H67a2.47,2.47,0,0,0,1.8-.57,1.76,1.76,0,0,0,.5-1.28,1.58,1.58,0,0,0-.61-1.33,2.92,2.92,0,0,0-1.67-.42h-.71Z"/>
      <path class="cls-3" d="M82.59,275.67H78.21v2.53h4.16v2.56H78.21v2.9h4.38v2.56H75.18v-13.1h7.41Z"/>
      <path class="cls-3" d="M25.33,301.67h5.23v-5h3v13.1h-3v-5.56H25.33v5.56h-3v-13.1h3Z"/>
      <path class="cls-3" d="M48.05,298.29a7,7,0,0,1,0,9.86A7,7,0,0,1,43,310.07a7.22,7.22,0,0,1-5.11-1.92,6.68,6.68,0,0,1-2-4.87,7.3,7.3,0,0,1,2-5A7,7,0,0,1,43,296.38,7,7,0,0,1,48.05,298.29Zm-7.95,2a4,4,0,0,0-1.16,3,3.88,3.88,0,0,0,1.2,2.94A3.83,3.83,0,0,0,43,307.28a3.87,3.87,0,0,0,4-4,4.13,4.13,0,0,0-1.14-2.95A4.18,4.18,0,0,0,43,299.17,4,4,0,0,0,40.1,300.29Z"/>
      <path class="cls-3" d="M51.74,309.78l2.1-13.1h2.52l3.26,7.83,3.26-7.83h2.51l2.1,13.1h-3l-1-7.82-3.28,7.82H59.09L55.81,302l-1.05,7.82Z"/>
      <path class="cls-3" d="M77.15,299.23H72.77v2.53h4.16v2.56H72.77v2.9h4.38v2.56H69.74v-13.1h7.41Z"/>
      <path class="cls-3" d="M31.07,321.85a7,7,0,0,1,0,9.86A7,7,0,0,1,26,333.63a7.21,7.21,0,0,1-5.1-1.92,6.69,6.69,0,0,1-2-4.87,7.31,7.31,0,0,1,2-5A7,7,0,0,1,26,319.94,7,7,0,0,1,31.07,321.85Zm-7.95,2a4,4,0,0,0-1.16,3,3.87,3.87,0,0,0,1.2,2.94,3.81,3.81,0,0,0,2.8,1.08,4,4,0,0,0,2.91-1.12A3.91,3.91,0,0,0,30,326.8a4.13,4.13,0,0,0-1.14-2.95A4.2,4.2,0,0,0,26,322.73,4,4,0,0,0,23.12,323.85Z"/>
      <path class="cls-3" d="M42.63,322.79H38.39v2.54h3.93v2.55H38.39v5.46h-3v-13.1h7.26Z"/>
      <path class="cls-3" d="M54,322.79v10.55H51V322.79H48.15v-2.55h8.72v2.55Z"/>
      <path class="cls-3" d="M61.48,325.23H66.7v-5h3v13.1h-3v-5.56H61.48v5.56h-3v-13.1h3Z"/>
      <path class="cls-3" d="M80,322.79H75.62v2.54h4.16v2.55H75.62v2.9H80v2.56H72.59v-13.1H80Z"/>
      <path class="cls-3" d="M21.57,343.8v10.55h4.07v2.55H18.55V343.8Z"/>
      <path class="cls-3" d="M30.43,343.8v13.1h-3V343.8Z"/>
      <path class="cls-3" d="M35.26,343.8l3.32,8.38,3.32-8.38h3.26L39.6,356.9h-2L32,343.8Z"/>
      <path class="cls-3" d="M49.75,343.8v13.1h-3V343.8Z"/>
      <path class="cls-3" d="M52.67,356.9V343.8H55.3l7.11,8.44V343.8h3v13.1H62.81l-7.11-8.49v8.49Z"/>
      <path class="cls-3" d="M74.61,349.75h6.5v.14a8.51,8.51,0,0,1-2,5.52,6,6,0,0,1-4.67,1.78,6.15,6.15,0,0,1-4.79-1.82,7.45,7.45,0,0,1,0-10,6.73,6.73,0,0,1,5.14-1.91,6.6,6.6,0,0,1,3.68,1,7.3,7.3,0,0,1,2.12,2.33l-2.73,1.48a4.11,4.11,0,0,0-1.16-1.42,3.31,3.31,0,0,0-2-.63,3.55,3.55,0,0,0-2.71,1.06,4.49,4.49,0,0,0-1.12,3.11,4.11,4.11,0,0,0,1.1,3,4,4,0,0,0,4.93.32,3.17,3.17,0,0,0,.94-1.56H74.61Z"/>
      <path class="cls-3" d="M35.05,373.31h6.5v.14a8.47,8.47,0,0,1-2,5.52,6,6,0,0,1-4.67,1.79,6.16,6.16,0,0,1-4.79-1.83,7.45,7.45,0,0,1,0-10,6.73,6.73,0,0,1,5.14-1.91,6.55,6.55,0,0,1,3.67,1A7.34,7.34,0,0,1,41,370.38l-2.73,1.48a4.11,4.11,0,0,0-1.16-1.42,3.31,3.31,0,0,0-2-.62,3.55,3.55,0,0,0-2.71,1.06,4.49,4.49,0,0,0-1.12,3.1,4.11,4.11,0,0,0,1.1,3A3.43,3.43,0,0,0,35,378a3.38,3.38,0,0,0,2.28-.7,3.08,3.08,0,0,0,.95-1.55H35.05Z"/>
      <path class="cls-3" d="M55.42,369a6.85,6.85,0,0,1,2,4.95,6.78,6.78,0,0,1-2,4.91,7,7,0,0,1-5.07,1.93,7.22,7.22,0,0,1-5.11-1.93,6.72,6.72,0,0,1-2-4.87,7.3,7.3,0,0,1,2-5,7.07,7.07,0,0,1,5.13-1.93A7,7,0,0,1,55.42,369Zm-8,2a4,4,0,0,0-1.16,3,3.94,3.94,0,0,0,1.2,2.95A3.89,3.89,0,0,0,50.31,378a4,4,0,0,0,2.91-1.12,3.94,3.94,0,0,0,1.14-2.93A4.13,4.13,0,0,0,53.22,371a4.25,4.25,0,0,0-2.89-1.12A4.06,4.06,0,0,0,47.46,371Z"/>
      <path class="cls-3" d="M63.86,367.36A6.91,6.91,0,0,1,69,369.17a6.83,6.83,0,0,1,.1,9.33,7.09,7.09,0,0,1-5.17,2H59.71v-13.1Zm-1.12,10.55h.8a4.71,4.71,0,0,0,3-.89,4.12,4.12,0,0,0,1.27-3.16A3.89,3.89,0,0,0,66.72,371a4.32,4.32,0,0,0-3.18-1.12h-.8Z"/>
    </g>
    <g>
      <path class="cls-3" d="M38.8,36.42H78.36V21.14H23.94V50H38.8ZM28,45.89V25.24H74.26v7.07H34.69V45.89Z"/>
      <g>
        <path class="cls-3" d="M79.19,77.07c0-16-12.07-28.15-28.07-28.15S23,61,23,77.07s12.07,28.15,28.08,28.15S79.19,93.12,79.19,77.07Zm-52,0c0-13.86,10.39-24,24-24s24,10.18,24,24-10.39,24.05-24,24.05S27.14,90.93,27.14,77.07Z"/>
        <path class="cls-3" d="M68.58,77.07c0-9.91-7.21-17-17.46-17s-17.46,7.06-17.46,17,7.2,17,17.46,17S68.58,87,68.58,77.07Zm-30.82,0c0-7.7,5.37-12.87,13.36-12.87s13.35,5.17,13.35,12.87S59.1,89.94,51.12,89.94,37.76,84.77,37.76,77.07Z"/>
      </g>
      <path class="cls-3" d="M78.36,137.82h-32c-2.19,0-4.45-.07-5.88-.89a6,6,0,0,1-.05-10.08c1.48-.84,3.74-.91,5.93-.91h32V110.66H44.53A21.18,21.18,0,0,0,29.77,116a22,22,0,0,0,0,31.69,21.17,21.17,0,0,0,14.75,5.37H78.36ZM44.53,149a17.1,17.1,0,0,1-12-4.29,17.89,17.89,0,0,1,0-25.64,17.1,17.1,0,0,1,12-4.29H74.26v7.06H46.4c-2.49,0-5.54.07-8,1.46a10.11,10.11,0,0,0,0,17.18c2.42,1.39,5.47,1.46,8,1.46H74.26V149Z"/>
      <path class="cls-3" d="M78.36,160.76H23.94V176H78.36ZM28,171.93v-7.07H74.26v7.07Z"/>
      <path class="cls-3" d="M58.71,206.83l7,12,3.44-1.72a19.83,19.83,0,0,0,5.92-4.53,17.83,17.83,0,0,0,4.1-12c0-8.54-5.71-17.61-16.3-17.61-4.79,0-11.36,2.07-15.49,11.93l-.16.39L44,180.62l-3.59.31a19.16,19.16,0,0,0-11.39,4.91,17.67,17.67,0,0,0-6,13.94c0,11,8,19,18.93,19C49.54,218.78,55,214.87,58.71,206.83Zm-31.57-7.05a13.55,13.55,0,0,1,4.64-10.88,15,15,0,0,1,9-3.88l1.53,7A10,10,0,0,0,36.43,194a7.28,7.28,0,0,0-2.77,6,7.42,7.42,0,0,0,7.76,7.62c4.71,0,6.65-3.6,7.89-6.65l1.87-4.43c1.6-3.82,4.79-9.43,11.71-9.43,6.24,0,12.2,4.85,12.2,13.51A13.64,13.64,0,0,1,72,209.9a15.69,15.69,0,0,1-4.64,3.53L64,207.75a7.18,7.18,0,0,0,4.58-7.07c0-4.29-2.57-6.51-5.55-6.51-1.38,0-3.81.48-5.61,5l-1.87,4.64c-3.46,8.52-8.32,10.88-13.58,10.88C33.17,214.68,27.14,208.44,27.14,199.78Zm15.18-3.65H46.9l-1.39,3.28c-1.41,3.46-2.49,4.1-4.09,4.1A3.33,3.33,0,0,1,37.76,200a3.19,3.19,0,0,1,1.15-2.76A5.89,5.89,0,0,1,42.32,196.13Zm17.11,9,1.8-4.48c.16-.4,1-2.41,1.8-2.41,1,0,1.44.81,1.44,2.41a3.33,3.33,0,0,1-.7,2.35,3.24,3.24,0,0,1-1.29.91Z"/>
      <path class="cls-3" d="M63.5,257.93H78.36V224.22H23.94v33.71H38.8V239.5h6.34v17.88H60V239.5h3.5Zm-7.6-4.66H49.24V235.4H34.69v18.43H28v-25.5H74.26v25.5H67.61V235.4H55.9Z"/>
      <path class="cls-3" d="M63.5,430.48H78.36V396.77H23.94v33.71H38.8V412.05h6.34v17.88H60V412.05h3.5Zm-7.6-4.66H49.24V408H34.69v18.43H28v-25.5H74.26v25.5H67.61V408H55.9Z"/>
      <path class="cls-3" d="M60.61,459.43c6.51,0,7.14-6.17,7.14-9.63v-2.43H53.06v2.22C53.06,451.53,53.26,459.43,60.61,459.43Zm-3.34-7.95h6.3c-.34,3.84-1.89,3.84-3,3.84C59.78,455.32,57.76,455.32,57.27,451.48Z"/>
      <g>
        <path class="cls-3" d="M64.42,504.53c2.91-4,3.19-8.93,3.19-12.33v-3.05H34.69v3.05c0,3.47.28,8.25,3.26,12.27a16.32,16.32,0,0,0,13.17,6.3A16.47,16.47,0,0,0,64.42,504.53ZM41.25,502c-1.93-2.6-2.37-5.81-2.44-8.76H63.49c-.07,2.87-.5,6.25-2.39,8.86a12.3,12.3,0,0,1-10,4.55A12.18,12.18,0,0,1,41.25,502Z"/>
        <path class="cls-3" d="M73.05,511.42c4.67-6.28,5.31-13.15,5.31-19.63V478H24.59L46,462.36a16.77,16.77,0,0,0,14.7,8c2.82,0,9.87-.71,14.28-7.28,2.42-3.58,3.4-7.78,3.4-14.49V436.2H23.94v15.28H35.71l-11.77,8.24v31.93c0,7.36.87,13.15,5.18,19.27,5,7.11,12.82,11,22,11A27,27,0,0,0,73.05,511.42ZM28,461.85,47,448.62v-1.25H28V440.3H74.26v8.25c0,5.61-.69,9.22-2.7,12.19a12.91,12.91,0,0,1-10.88,5.48A12.68,12.68,0,0,1,47.79,456L28,470.38Zm4.44,46.7c-3.81-5.4-4.44-10.46-4.44-16.9v-9.56H74.26v9.7c0,6.44-.69,12-4.51,17.18a22.86,22.86,0,0,1-18.63,8.87C43.42,517.84,36.77,514.65,32.48,508.55Z"/>
      </g>
      <path class="cls-3" d="M60.61,550.61c6.51,0,7.14-6.16,7.14-9.63v-2.42H53.06v2.21C53.06,542.71,53.26,550.61,60.61,550.61Zm-3.34-8h6.3c-.34,3.85-1.89,3.85-3,3.85C59.78,546.51,57.76,546.51,57.27,542.66Z"/>
      <path class="cls-3" d="M78.36,569.16H24.59L46,553.55a16.79,16.79,0,0,0,14.7,8c2.82,0,9.87-.71,14.28-7.29,2.42-3.58,3.4-7.78,3.4-14.49V527.38H23.94v15.28H35.71L23.94,550.9v33.54H78.36ZM28,553,47,539.8v-1.24H28v-7.07H74.26v8.24c0,5.62-.69,9.22-2.7,12.2a12.89,12.89,0,0,1-10.88,5.47,12.68,12.68,0,0,1-12.89-10.25L28,561.56Zm0,27.3v-7.07H74.26v7.07Z"/>
      <path class="cls-3" d="M64.47,617.89c0,1.31,0,5.3-4.06,9.79l-6.22,6.86H74l1.21-1.9a25.87,25.87,0,0,0,4-14.54c0-8.14-2.27-14.34-7.15-19.52-3.75-4-10.46-8.7-21.06-8.7a26.61,26.61,0,0,0-20.44,8.69A27.31,27.31,0,0,0,23,617.75a29.34,29.34,0,0,0,4,14.79l1.2,2H48.53L42,627.61A14.24,14.24,0,0,1,37.76,618c0-7.42,5.56-12.8,13.22-12.8C59.05,605.16,64.47,610.28,64.47,617.89ZM51,601.05c-9.77,0-17.32,7.07-17.32,16.91A18.35,18.35,0,0,0,39,630.43H30.61a25.13,25.13,0,0,1-3.47-12.68,23.12,23.12,0,0,1,6.38-16.35A22.65,22.65,0,0,1,51,594a24.17,24.17,0,0,1,18.08,7.41c4.51,4.78,6,10.32,6,16.7a21.9,21.9,0,0,1-3.33,12.33H63.45c4.64-5.13,5.13-9.91,5.13-12.54C68.58,607.84,61.16,601.05,51,601.05Z"/>
      <path class="cls-3" d="M78.36,666.72H60.07v-11.6H78.36V639.84H23.94v15.28H45.21v11.6H23.94V682H78.36ZM28,677.9v-7.07H49.31V651H28v-7.07H74.26V651H56v19.82H74.26v7.07Z"/>
    </g>
  </g>
</svg>
