<svg id="Layer_1" data-name="Layer 1" xmlns="http://www.w3.org/2000/svg" viewBox="0 0 88 654">
  <defs>
    <style>
      .cls-1 {
        fill: #ffd217;
      }

      .cls-2 {
        fill: #662d91;
      }

      .cls-3 {
        fill: #f7931e;
      }
    </style>
  </defs>
  <title>lamb</title>
  <rect class="cls-1" width="88" height="654"/>
  <g>
    <path class="cls-2" d="M37.47,202.49c-2.25,3-5.16,3.33-8.39,2.36-6.58-2-9-7.17-10-13.27-1.21-7.19.07-14.21,1.82-21.17a36.65,36.65,0,0,0,.53-3.78c2.33,0,4.89-.07,7.45.08.38,0,.86,1.09,1,1.74a5.94,5.94,0,0,1-.18,1.94c-.11,1,.33,1.15,1.28,1.08,1.88-.15,3.77-.05,5.66-.15,1.11-.06,2.21-.4,3.32-.45,2-.07,4,0,6.16,0-.17-1.49-.37-2.71-.4-3.94,0-.4.4-1.16.64-1.17,2.19-.05,4.39.12,6.58,0,1.53-.08,3-.64,4.56-.69,3.23-.09,6.47,0,9.69.11.43,0,1.14.85,1.19,1.35.82,9.12,1.85,18.29,0,27.37a37.62,37.62,0,0,1-3.59,10.18c-3.38,6.25-10,8.25-17.51,5.88C43.09,208.64,42,207.78,37.47,202.49Zm-5-7.73c.2-.22.37-.59.6-.64,2.45-.45,2.23-2.4,2.21-4.08,0-2.26-.3-4.51-.45-6.76-.23-3.49-1-4.09-4.43-3.31-.36.08-.91.55-.91.83,0,4.08,0,8.16.26,12.23A1.86,1.86,0,0,0,32.48,194.76Zm8.73-15.22c0,4.54,0,8.79,0,13.05,0,1,.28,1.92,1.59,1.91s2.62,0,2.71-1.7q.34-6.27.52-12.55c0-.29-.64-.85-1-.86C43.7,179.35,42.35,179.48,41.21,179.54Z"/>
    <path class="cls-2" d="M41.2,137.05c-2.09-2.18-4.2-4.5-6.45-6.69-1.31-1.28-2.75-2.25-.81-4.21,2.29-2.32,4.4-4.83,6.59-7.27a6,6,0,0,0-1.12-.14c-5.47.18-10.94.32-16.41.62-1.49.08-2.22-.2-2.31-1.8-.14-2.77-.4-5.53-.61-8.3h3.47v-.06l-1.95-.12v-.31c3.94,0,7.88-.13,11.82-.14s8,.08,12,.1H57.77l-.73-.55H71l.25.59c-1.42,1.69-2.81,3.41-4.24,5.09q-7.71,9-15.47,18c-1,1.12-.93,1.93,0,3,6.13,7,12.2,14.13,18.29,21.21.59.7,1.11,1.46,2,2.62-1.42-.07-2.32-.13-3.23-.15l-35.34-.91c-3.68-.09-7.37-.25-11.06-.26-1.36,0-1.76-.54-1.69-1.81.31-5.05.58-10.1.85-15.15.08-1.52.15-3.05.21-4.53Z"/>
    <path class="cls-2" d="M72.09,82.55l-48.15,23.7-3.33-8.87c-1.14-3.06-2.17-6.17-3.44-9.18a1.6,1.6,0,0,1,1-2.38c1.75-.68,3.6-1.12,5.7-1.75.37-3.41.82-7.11,1.15-10.82,0-.42-.49-1-.91-1.32A11.8,11.8,0,0,0,22,71c-2.93-1.24-3.1-2-1.63-4.95a44.45,44.45,0,0,0,1.86-5.44L72.1,81.86ZM40.8,78.93,32,75.25c0,1.28,0,2.34,0,3.4,0,2.3.73,2.76,3,2.07C36.77,80.15,38.6,79.6,40.8,78.93Z"/>
    <path class="cls-2" d="M43.45,35.18c0,5.68,0,11.26,0,16.83,0,2.32,0,4.64.08,7,.05,1.22-.28,1.69-1.59,1.63-5.88-.3-11.76-.52-17.64-.74-1.58-.06-2.51-.36-2.59-2.4-.4-10.22-1-20.42-1.59-30.63-.1-1.8.92-1.74,2.12-1.74L55.08,25c3.87,0,7.74.06,11.6,0,1.64,0,2.41.31,2.2,2.16a34.09,34.09,0,0,0-.06,5.35c.06,1.42-.4,2-1.92,2-6.12.06-12.25.22-18.37.38C46.82,34.94,45.11,35.09,43.45,35.18Z"/>
  </g>
  <g>
    <path d="M35.9,248.42c.83-.64,1.64-.79,2.39,0a1.83,1.83,0,0,1,.35,2c-.52-.28-.68-1.45-1.63-.7,1,.33.73,1,.27,1.65l.15.1a2.88,2.88,0,0,1,.65-.39c.22-.08.58-.17.7-.06a.91.91,0,0,1,.24.74A1.39,1.39,0,0,1,37.9,253c-.26.72-.44,1.32-.69,1.9-.06.13-.45.26-.54.19a1.41,1.41,0,0,1-.47-.66c-.08-.25,0-.54-.12-.85-.26.47-1,.59-.78,1.35.17.48.37.83,1,.66s1.3.1,1.67,1c.6,1.51,1.11,3.07,1.64,4.61.12.34.13.72.26,1a1.34,1.34,0,0,0,.5.71c.12.06.49-.21.66-.41a1.89,1.89,0,0,0,.59-1.93c-.39-1.51.62-3.09,2.3-3.9a2.9,2.9,0,0,1,3.76.85,4.37,4.37,0,0,1,.8,2.41c0,2.49-1.17,4.11-4.13,4a7.16,7.16,0,0,0-1.33.22,3.16,3.16,0,0,0-.16.58c-.3,2.41-.53,4.83-.92,7.23a10.31,10.31,0,0,1-1.9,5.08c-.2.25-.33.8-.88.45,0,0-.23.09-.27.18-.25.53-.49,1.07-.79,1.74l1.17-.42-.18-.67a4.34,4.34,0,0,1,.63.08,2.35,2.35,0,0,1,1.41,2.07c0,.3-.3.79-.52.82-1.46.2-2.22,1.34-3.21,2.2a5.48,5.48,0,0,1-.92.52c-.11-.36-.23-.72-.33-1.09,0-.2,0-.48-.09-.61a1.4,1.4,0,0,1,0-1.81,5.29,5.29,0,0,0,.85-3.6c-.39.68-.39,1.74-1.64,1.61a16.58,16.58,0,0,1,.23,1.88,6.23,6.23,0,0,1-.19,1.78,4.24,4.24,0,0,0,.61,4.21,2.72,2.72,0,0,1,.29.74,4,4,0,0,0,.38.87.8.8,0,0,1-.3,1.31,1.9,1.9,0,0,1-2.27-.52c-.42-.53-.75-1.13-1.2-1.63a9,9,0,0,0-1.53-1.37c-.63-.45-.69-.6-.16-1.12s1.09-1,1.57-1.6a1.64,1.64,0,0,0,.23-.92c0-.3-.23-.62-.19-.91.29-1.87-1.27-2.39-2.33-3.29a3.64,3.64,0,0,1-.69-.91,40.63,40.63,0,0,1-2.39-3.92,15.8,15.8,0,0,1-1.57-7.63A1.74,1.74,0,0,0,25.1,264a.73.73,0,0,1-.25-.59,3.77,3.77,0,0,1,2.21-2.69c.71-.25,1,0,1,.78a12.1,12.1,0,0,0,.11,1.34l.32,0a7,7,0,0,0,.42-1.22c.16-.87.26-1.76.36-2.64A4.34,4.34,0,0,1,32,255.58a3,3,0,0,0,.88-.71c.12-.15.16-.55,0-.65a2,2,0,0,1-.35-2,1.3,1.3,0,0,0-1.19,1c-.06.2-.37.32-.57.48-.09-.25-.3-.54-.25-.75.12-.45.26-.81-.29-1.07-.06,0,0-.41.06-.57a2.06,2.06,0,0,1,1.56-1.16c.61-.1.74-.44.68-1a2.24,2.24,0,0,1,.27-1.32,1.06,1.06,0,0,0,.09-1.19c-.09-.15,0-.55.05-.59s.56-.08.64,0a2.12,2.12,0,0,1,.33,1,15.32,15.32,0,0,1,0,1.68c.64-.27.49-.72.54-1.1s.06-.76.27-.92a1.2,1.2,0,0,1,1.48,0c.49.34.47.64,0,1a2.67,2.67,0,0,0-.49.6Zm-2.49,32.33a1.21,1.21,0,0,0,0,.33c.34,1.34.66,2.69,1,4a1.79,1.79,0,0,1-.1,1.57l-.3-.82a1.16,1.16,0,0,0,.62,2,1.15,1.15,0,0,0,1-.25c.15-.16,0-.66-.11-1a10.39,10.39,0,0,1-.72-1.3,5.94,5.94,0,0,1,0-3.13,11.56,11.56,0,0,0,.2-2Zm4.88-2.83c-.44-.2-.64-.19-.75.31-.18.76-.51,1.49-.74,2.24-.14.45-.44,1.15-.26,1.34.46.48.94-.13,1.4-.32.11,0,.27-.14.27-.21a6.82,6.82,0,0,0-.07-.9c-.57.17-.37-.29-.33-.48C37.93,279.25,38.12,278.61,38.29,277.92Zm-5.16-20.64.46,1.17c.17-.09.29-.1.33-.17.37-.55.74-1.11,1.1-1.68.63-1,.41-1.45-.82-1.64a5.11,5.11,0,0,1,.34,1.61C34.46,257.26,34,257.47,33.13,257.28Zm.76,27.8-.22-.28-.79.76.19.19Z"/>
    <path d="M53.14,254.16l-1.63-.36c.33-2,.58-3.92,1-5.8A1.69,1.69,0,0,1,54,246.46a1.63,1.63,0,0,1,1.91,1.3c.11.44.12.9.22,1.35.26,1.16.55,2.33.84,3.49,0,.18.11.35.17.55a3.7,3.7,0,0,0-1,.4.93.93,0,0,0-.27.72c0,.17.31.4.51.44,1.15.23,1.51.51,1.72,1.68.33,1.8.54,3.62.9,5.41.47,2.38,1,4.75,1.55,7.11a1.35,1.35,0,0,1-.51,1.53.87.87,0,0,0-.38,1,2,2,0,0,1,0,.93c-.48,1.4,0,2.73.28,4,.43,2.38,1,4.73,1.58,7.1a1.83,1.83,0,0,1-1.14,2.3A1.08,1.08,0,0,0,59.8,287a2.21,2.21,0,0,1-1.33,2.07c-1.92,1.16-3.95,1.47-6-.29a2.18,2.18,0,0,0-1.07-.33,2.71,2.71,0,0,1-2.52-2.37,2.07,2.07,0,0,0-.94-1.35,5.89,5.89,0,0,1-1.41-1.57.88.88,0,0,1,.38-1.3c.78-.32.88-1,1-1.61.33-1.3.57-2.62.9-3.93.14-.54.55-1.05.56-1.58a2.46,2.46,0,0,0-.51-1.66c-.66-.65-.8-1.58-1.44-2.21-.09-.1,0-.42,0-.61a40.72,40.72,0,0,0,1.82-8.88c.19-1.33.39-2.66.61-4a2.84,2.84,0,0,1,2.38-2.29C53.1,254.88,53.12,254.87,53.14,254.16Zm.6.24c-.18.46-.43.87,0,1.32a1.39,1.39,0,0,0,1.6.26.54.54,0,0,0,.25-.4,12.42,12.42,0,0,0-.4-1.18Z"/>
    <path d="M31.81,246.86c-.73-1.49-.91-1.67-1.94-2,1.25.86,1.51,2.27,2.09,3.68l-.44-.32-1.13-.87a1.19,1.19,0,0,1-.34-.37,2.89,2.89,0,0,0-2.74-1.47c1.79,2.1,1.89,4.52,1.73,7A8.84,8.84,0,0,1,27.8,256l.4-4.94-.26,0c-.45.82-.27,1.92-1.2,2.72l.2-.9-.5.23c.12-.94.3-1.84.33-2.74a15.52,15.52,0,0,0-.21-2.56l-.74,4.19-.33,0c0-2,.91-4.07-.72-6a39.53,39.53,0,0,0-3.63,14.85,33.34,33.34,0,0,0,2.22,15c-.64-.15-.95-.71-1.42-2.48-.26-1-.51-1.93-.77-2.89l-.23,0c-.06.2-.22.43-.18.6.28,1.08.61,2.14.88,3.22a2.06,2.06,0,0,1,0,.78c-.08.45-.2.88.24,1.25.09.06,0,.33,0,.51-.17,0-.4,0-.49-.11a2.7,2.7,0,0,1-.59-.94c-.55-2.39-1.16-4.77-1.55-7.19a26.55,26.55,0,0,1-.14-8.67c.25-1.47.46-2.94.7-4.4a6.45,6.45,0,0,1,.32-1,2.13,2.13,0,0,0,0-2,17.72,17.72,0,0,1-.72-1.94,4.85,4.85,0,0,0,.23,4c-.71.29-.83-.4-1.27-.74l-.25,1.74-.16,0-.48-2.09-.4,1.91a6.13,6.13,0,0,1-.27-3.38c.15-.92.5-1.8.74-2.71.09-.37.13-.75.2-1.13l-.18,0-.35.74a8.07,8.07,0,0,1,.64-4.87c-1.28,1.71-1.34,3.91-2.27,5.76-.52-1,.25-2.07.07-3.15l-1.75,2.89-.19-.08c.17-.52.31-1.05.51-1.56.46-1.19.87-2.39,1.42-3.54a5.45,5.45,0,0,1,3.76-2.8c.61-.16.78-.54,1-1.13l-.71.13a5.31,5.31,0,0,1,2.73-1.74h-.62l0-.17,1.86-.3c-1.46-.38-3,.15-5.46,1.9l-.13-.12a9.59,9.59,0,0,1,1.34-1.22,8.44,8.44,0,0,1,1.83-.84c.59-.2,1.23-.3,1.83-.52a3.78,3.78,0,0,0-2.63.18l-2.45,1-.15-.23a10.34,10.34,0,0,1,2-1.45,12.19,12.19,0,0,1,3-.78A1.91,1.91,0,0,1,25,237.47a13.36,13.36,0,0,1,.49,2.17c.08.41.09.83.14,1.31.68-1.07,1.25-2.06,1.91-3a2.35,2.35,0,0,1,2.51-.92c1.21.25,2.41.62,3.6,1a2,2,0,0,1,.92.79l-3.4-.38-.12.3,2.34,1.62-2-.22.07.75-2.06-.34A1.79,1.79,0,0,0,31.15,242a2.64,2.64,0,0,1,.89.44c.69.38,1.38.76,2.06,1.16a5.46,5.46,0,0,1,.59.46l-.11.16-1.14-.74-.16.08.9,2.12-.18.12a7.65,7.65,0,0,0-3.49-2.38C31.3,244.47,32.27,245.34,31.81,246.86Zm-4.38-4.2-1.18,1.39.33.25,1.09-1.53-.26-.1,1.66-.85a2.16,2.16,0,0,0-2.59,1.12Zm.09-2.84c.5-.13,1-.23,1.48-.39a4.29,4.29,0,0,0,.75-.45c-1.14-.35-1.68.27-2.24.86,0-.19-.13-.52-.06-.56.66-.38,1.17-1.08,2.08-1a1.91,1.91,0,0,0,1.76-.68c-.47,0-.93.12-1.06,0-.45-.56-.86-.17-1.27,0-1.71.64-2.09,2.29-2.74,3.74ZM21.78,249h-.2l.32-2.5a5.34,5.34,0,0,0-1.12,4l-.37-.46-.14.06.19,2.46.21,0,2.49-5.34C22.68,247.13,22.68,247.13,21.78,249Zm2.42-8.47c-1.09-.76-3.15-.33-3.64.68a6.17,6.17,0,0,1,1.71.59,3,3,0,0,0,2.72.34,3.85,3.85,0,0,0-2.14-1.36Zm-2.52,4.42,2.62-.65a1.47,1.47,0,0,0-1.67-.82A1.37,1.37,0,0,0,21.68,244.92Zm-6.75,2,2.78-4.39A7.3,7.3,0,0,0,14.93,246.92Zm4.91-1.3a5.17,5.17,0,0,0,.85-.16,1,1,0,0,0,.54-.4c.22-.58.37-1.18.52-1.7A3,3,0,0,0,19.84,245.62Zm6.23-.22c1.07.93.8,2.33,1.25,3.57C28,247.5,27.31,245.64,26.07,245.4Zm-7.69,1.22c1.41-.54,1.06-2,1.73-2.87l-.21-.11Zm7.1-2.7a1.48,1.48,0,0,0-1.29-1.19c-1.14-.26-1.9-.13-2.27.33C23.23,242.88,24.53,242.67,25.48,243.92ZM20.54,268a1.87,1.87,0,0,0,.27,2.06A1.82,1.82,0,0,0,20.54,268Zm-1.93-17.88.87-2.75-.23-.07A4.42,4.42,0,0,0,18.61,250.14Zm1.42,15,.33,0-.16-2.24-.17,0Zm.08,2.25a1.18,1.18,0,0,0-.14-1.9Zm-1.46-23.25.23.18,1.35-1.69-.27-.21Zm7.8.9,2.24.27A1.94,1.94,0,0,0,26.45,245Zm-3.53-5.22a1.76,1.76,0,0,0-2.08.52Zm-3.24,10.11.24,0,.36-2.1-.28,0Zm-1.93,3.13.22,0,.3-2.41-.22,0Zm-.37-6.36.23.09.69-2-.28-.1Zm10.81-2.91h1.95C29.38,243.06,28.79,243.53,28.19,243.79Zm.13-3.14-.15-.27-1.47,1.14.14.19ZM17.41,251h-.26l-.09,2h.21Zm6.47-11.88,0-.24-2.15.23,0,.14Zm6,3.41-.08-.25-1.71.68.08.19Z"/>
    <path d="M68.59,239.93a11.19,11.19,0,0,0,2,1.44,23.73,23.73,0,0,0,3.17.85c0,.41-1.11.2-.8,1.14l-3.61-.52,1.41,1.44-.6.15.76.83c-.78,0-2.13-1.16-3.88-3.32-.24.42-.24.42.28,1.58-.34-.22-.71-.42-1-.67-.68-.54-.83-.53-1.46.16.47.38.93.77,1.42,1.13a.5.5,0,0,0,.4,0,1.05,1.05,0,0,1,1.45.41,9.35,9.35,0,0,1,1,2c.33.79.58,1.61.86,2.43.82,2.41,1.42,4.84.53,7.37a6.58,6.58,0,0,1-.29.66c0,.06-.1.1-.3.29a12.14,12.14,0,0,0-.57-6.75l-.74,2.58h-.22a3.78,3.78,0,0,1,0-.75,8.63,8.63,0,0,0-.42-4.25,6,6,0,0,0-1.13-1.79v2.16l-.13,0-.28-.65-.32.9c-.51-1.64-.6-3.39-2.32-4.17l-.26.1c.17.69.34,1.39.52,2.07.53,2,1.08,3.94,1.58,5.92.28,1.16.46,2.35.7,3.52a31.5,31.5,0,0,1,.21,8.51c-.07.9-.24,1.81-.32,2.71a2.61,2.61,0,0,0,.08.69c-.17.44-.33.82-.46,1.21-.44,1.33-.86,2.68-1.32,4-.08.24-.32.42-.56.72l-.31-.55-1.16.45a51.16,51.16,0,0,0,0-28.71,2.94,2.94,0,0,0-.86,2.27c0,1.72.13,3.43.21,5.17-1.32-1.41-1-3.45-1.84-5.26-.2,2.27.56,4.18,1.06,6.13l-.2.12-1.32-2,.36,1.62c-.55.38-.89-.06-1.12-.42a6.11,6.11,0,0,1-.8-5.81,1.88,1.88,0,0,0,.19-1.34c-.18-.62.46-2.1,1.22-3.08a9.47,9.47,0,0,0-1,.2,8.76,8.76,0,0,0-.84.35L57.4,243l1.39-1.24a8.68,8.68,0,0,0-4.92.47c.85-1.89,2.58-1.48,4-1.81-1.2-.77-3.62-.12-7.2,1.82l.36-.44.47-.5-.51.12c1.29-2.16,4.47-2.73,6.34-2.36.59.11,1.14.38,1.73.49.35.07.73-.07,1.09,0s.92.21,1.4.32c-.06-1.59-1.49-3-2.89-2.07,0-.87.75-1.44,1.82-1.44,1.36,0,2,.44,2.05,1.42l-.8-1.08c.34,1.41.68,2.8,1,4.19a11.72,11.72,0,0,0,.34-1.33c.36-2.46,3.5-3.18,5.06-1.85a8.23,8.23,0,0,0,2.12,1c-.52.14-1,.77-1.77.29a6.13,6.13,0,0,0-1.6-.63,1,1,0,0,0-1.21.4,7.64,7.64,0,0,0,3,1.24c-2.12-.12-4.84,2-5.36,3.24h.07a2.07,2.07,0,0,0,.24-.17c1.35-1.29,2.75-2.48,4.73-2.68C68.4,240.33,68.49,240.07,68.59,239.93Zm-7.21,4.59-.18-.17c-1.44.4-3,2.69-2.54,3.91a15,15,0,0,1,1.1-2A16.09,16.09,0,0,1,61.38,244.52ZM66,245.94c0-1.38-.93-2.66-1.94-2.57Zm.76-1.54,2.06,2.26A2.24,2.24,0,0,0,66.77,244.4Zm-2.64-4.28c1.08.59,1.77.46,2.28-.46Zm-3.92-3.06c1.35.6,1.54,1.91,1.95,3.27C62.38,238.57,61.54,237.23,60.21,237.06Zm8.39,10.06-.19,0,.53,2.81A3.26,3.26,0,0,0,68.6,247.12Zm-7.24-.71-.15,0v3.3h.15Zm.11-5.09.19-.24-1.74-1.32-.16.21Zm-1.7,3.08,2.47-1A2.71,2.71,0,0,0,59.77,244.4Zm6.63,14.91a3.13,3.13,0,0,0-.67-.32c-.07,0-.17.2-.26.31a1.27,1.27,0,0,0,.41.3C66,259.63,66.12,259.48,66.4,259.31Z"/>
    <path d="M56.51,243.83l-1.8.13c.09-.15.15-.35.24-.37a7.63,7.63,0,0,1,1.42-.16.76.76,0,0,1,.54.39.77.77,0,0,1-.25.6,6.07,6.07,0,0,1-4.57.67.7.7,0,0,1-.14-1.3,1.73,1.73,0,0,1,.63-.29,2.37,2.37,0,0,0-.48.4.6.6,0,0,0,.19,1C53.08,245.35,55.7,244.76,56.51,243.83Z"/>
  </g>
  <g>
    <g>
      <g>
        <path d="M44.53,596c-4.59-.15-8.17-2-10.17-6.27a10.18,10.18,0,0,1,2.42-11.54,13.26,13.26,0,0,1,5.95-3.25,12.12,12.12,0,0,1,5.74.1,7.79,7.79,0,0,1,5.59,5.74,14.34,14.34,0,0,1,.11,8.21,9.39,9.39,0,0,1-8.92,7C45,596,44.77,596,44.53,596Zm-6.6-11.28c.16.93.22,1.63.4,2.3a5,5,0,0,0,2.36,3.25,2.13,2.13,0,0,0,2.49-.12,8.32,8.32,0,0,0,.07-8.83,2.47,2.47,0,0,0-4.4.43A24.12,24.12,0,0,0,37.93,584.69Z"/>
        <path d="M46,552.28a8.45,8.45,0,0,1,4.3,1A7.93,7.93,0,0,1,54,558.13a15,15,0,0,1,.28,8A9.88,9.88,0,0,1,52,570.46a8.6,8.6,0,0,1-4.25,2.72c-5.7,1.55-11.7-1.07-13.6-6.5-1.55-4.38-.05-8.91,3.84-11.88A12.33,12.33,0,0,1,46,552.28Zm-8.14,10.36a27.24,27.24,0,0,0,1,3.32,3.69,3.69,0,0,0,2.53,2.2,1.56,1.56,0,0,0,1.79-.41,8.42,8.42,0,0,0,.2-8.65c-1.29-1.93-3.54-1.83-4.52.27A23.61,23.61,0,0,0,37.87,562.64Z"/>
        <path d="M55.34,549.75l-.94.11.21.55c-1.75,0-3.46,0-5.16,0-4.88-.09-9.76-.21-14.64-.29-.67,0-.94-.19-.89-.92.16-2.22.24-4.44.37-6.66a1.6,1.6,0,0,1,2-1.66l5.56.37-3-3,3.78-4c-.39,0-.63-.05-.87,0-2.27.1-4.54.18-6.81.31-.64,0-.86-.17-.89-.78,0-.85-.12-1.69-.17-2.53,0-.48.77-1.21,1.37-1.23,1.18-.06,2.36-.1,3.54-.14,3.62-.1,7.24-.18,10.86-.29,1.57,0,3.13-.16,4.7-.23a2.16,2.16,0,0,1,.58.18,1.67,1.67,0,0,1-.2.57c-1.34,1.59-2.69,3.16-4,4.74s-2.44,2.87-3.67,4.3a.63.63,0,0,0,0,.95c2,2.28,3.92,4.58,5.89,6.87C53.66,547.83,54.46,548.73,55.34,549.75Z"/>
        <path d="M39.54,610.72l-5.25,3.9c-.47-1.26-.91-2.4-1.3-3.55,0-.13.14-.4.28-.51,1.11-.76,2.23-1.5,3.35-2.25l.25-.14c2.14-1.26,2.13-1.28,2.05-3.75,0-.49-.19-.61-.66-.56-1.16.1-2.32.14-3.47.22-.48,0-.72-.1-.72-.63,0-.68-.08-1.35-.11-2,0-1.37.41-1.83,1.77-1.84h7.53c.59,0,1.1.07,1.21-.83a1.68,1.68,0,0,1,1.25-1c2.49-.25,5-.38,7.51-.53.93-.06,1,0,1,.93,0,2.77.14,5.55.13,8.33a12.3,12.3,0,0,1-1.71,6.43,7.05,7.05,0,0,1-11,1.66,8.1,8.1,0,0,1-1.92-3.29C39.71,611.15,39.65,611,39.54,610.72Zm2.89-4.52h-.14a20.5,20.5,0,0,0,.23,2.36,1.06,1.06,0,0,0,1.23.89c.62-.07.67-.6.68-1,0-1.38,0-2.75,0-4.12,0-.36,0-.83-.53-.72s-1.34-.28-1.45.66A18.11,18.11,0,0,0,42.43,606.2Z"/>
        <path d="M44.53,629.28c0-1.53,0-3,0-4.57,0-.55-.12-.81-.72-.75s-1.07-.06-1,.8c.1,1.79.12,3.58.15,5.36a1.35,1.35,0,0,1-1.54,1.55c-1.78,0-1.78,0-1.76-1.78s0-3.28.1-4.93c0-.59-.09-.88-.78-.85s-.85.2-.82.85c.08,2.27.11,4.54.16,6.81,0,1.25-.49,1.77-1.76,1.78-.55,0-1.11,0-1.66,0s-.69-.17-.71-.66c-.11-2-.25-4-.37-6.08-.15-2.33-.28-4.67-.42-7a1.52,1.52,0,0,1,1.22-1.51c.89-.08,1.78-.11,2.67-.17.5,0,.79.13.77.69,0,.19.06.38.05.57,0,.47.21.69.66.67,1.78-.1,3.56-.21,5.34-.35.17,0,.32-.32.46-.51a5.17,5.17,0,0,0,.46-.69c.47-.84,1.32-.68,2-.73,2.17-.16,4.34-.23,6.51-.36.64,0,.85.18.82.82-.12,3.16-.2,6.32-.3,9.48a32,32,0,0,1-.16,3.54,6.12,6.12,0,0,0,0,1.91A1.66,1.66,0,0,1,52.14,635c-2.25-.1-4.49-.23-6.74-.3-.66,0-.93-.21-.91-.93.06-1.49,0-3,0-4.49Z"/>
      </g>
      <g>
        <path d="M44,438.77c-5-.23-8.59-2.71-10.09-6.93a10.59,10.59,0,0,1,3.31-11.13c2.82-2.2,5.66-3.61,9.24-3.47a8.38,8.38,0,0,1,8.26,7.54,12.78,12.78,0,0,1-.92,8C51.58,437,48.45,439,44,438.77Zm.44-10.41a20.59,20.59,0,0,0-1.53-4c-1.07-1.72-3.11-1.43-3.92.4a6,6,0,0,0,2.53,7.89,1.25,1.25,0,0,0,2-.77C43.82,430.83,44.05,429.75,44.41,428.36Z"/>
        <path d="M39.28,394.81c0-1.24.08-2.49,0-3.73-.3-4,4.11-7.34,7.17-7.56.47,0,.93,0,1.39-.11a5.73,5.73,0,0,1,6.78,5c.6,3.6,0,7.12-.57,10.64-.19,1.15-2,2.33-3.18,2.24-2.44-.19-4.88-.34-7.42-.52.78-3.48,1.6-6.83.2-10.13l-.59,0c.11,1.1.19,2.21.33,3.32A5.85,5.85,0,0,1,42.22,399a4.23,4.23,0,0,1-4.48,1.73,5.18,5.18,0,0,1-4.15-3.87,19,19,0,0,1,.53-10.69c.42-1.41,3-2.42,4.3-1.72.31.17.48.89.46,1.35-.09,2.49-.29,5-.38,7.46a6.14,6.14,0,0,0,.43,1.67Z"/>
        <path d="M39.33,367.51l-5.13,3.72c-.44-1.14-.88-2.1-1.17-3.1a1.22,1.22,0,0,1,.44-1,36.79,36.79,0,0,1,4.07-2.86c1.28-.74,1.32-1.8,1.17-3,0-.24-.55-.57-.86-.58a21.68,21.68,0,0,0-2.78.15c-.68.06-1.07-.15-1.06-.9,0-.42,0-.84,0-1.25a2.79,2.79,0,0,1,2.4-2.79c1.67-.08,3.34-.12,5-.09a5.87,5.87,0,0,0,4.71-1.61c.39-.39,1.31-.29,2-.35,1.75-.17,3.5-.37,5.26-.41.42,0,1.21.56,1.21.86,0,4,.53,8.07-.46,12.07-.71,2.86-4.46,6.92-7.85,6.65-2.89-.23-4.93-1.38-6.19-4-.12-.25-.22-.51-.34-.76Zm4.26-2,.63-.18c0-1.4,0-2.81,0-4.21,0-.23-.37-.45-.56-.67-.23.24-.62.47-.65.73a14.81,14.81,0,0,0-.09,2.9A4.82,4.82,0,0,0,43.59,365.49Z"/>
        <path d="M38.92,486.18a6.77,6.77,0,0,0-.32,1.44,21.61,21.61,0,0,0,.21,4,3.72,3.72,0,0,1-1.33,3.49c-.53.51-1.82.34-2.75.25-.27,0-.63-.83-.66-1.29-.26-3.84-.45-7.69-.67-11.54a3.13,3.13,0,0,1,2.28-2.78,4.66,4.66,0,0,1,1.66,0c.44.11,1,.46,1.16.83a1.34,1.34,0,0,0,1.66,1.06c1.68-.18,3.5.1,4.91-1.08,2.58-2.18,5.72-1,8.57-1.56.93-.19,1,.72,1,1.46-.1,2.87-.19,5.75-.29,8.62-.06,1.72-.13,3.43-.23,5.14a2.76,2.76,0,0,1-3,2.68c-1.62-.09-3.25-.15-4.87-.21-2-.06-2-.06-2-1.95,0-2.46,0-4.92,0-7.38a3.7,3.7,0,0,0-.43-1.17,4,4,0,0,0-.59,1.21,5.27,5.27,0,0,0,.13,2.21c.66,1.74-.69,2.69-1.42,3.82-.2.31-1.24.21-1.84.07-.26-.07-.55-.68-.56-1.06-.06-2,0-4.05,0-6.08Z"/>
        <path d="M34,501.43c2.66-2.48,5.8-1.46,8.77-1.59a3.8,3.8,0,0,0,2.56-.85c1.18-1.43,2.73-.83,4.09-1.11a22.74,22.74,0,0,1,3.61-.21c1.08-.05,1.62.35,1.6,1.53a62.57,62.57,0,0,1-.08,7.38c-.33,2.39-.22,4.92-2,7.07-2.94,3.64-7,4.74-10.18,2.18-1.28-1-2.09-2.63-3.21-4.11l-4.89,3.52c-.45-1.2-.88-2.21-1.17-3.25-.08-.27.23-.77.5-1,1.24-.9,2.54-1.71,3.79-2.58a3.75,3.75,0,0,0,1.22-1.11c.85-1.66.13-2.71-1.69-2.61-3.3.18-2.84.42-3-2.77C34,501.74,34,501.51,34,501.43Zm9.79,8.2.68-.19c-.07-1.49-.12-3-.24-4.45,0-.19-.45-.47-.67-.46s-.61.33-.62.53a23.49,23.49,0,0,0,0,3.46C43.05,508.91,43.54,509.26,43.82,509.63Z"/>
        <path d="M43.07,465.48c0,1.75.67,2.27,2.14,2.22,2.37-.08,4.74,0,7.1,0,1.94,0,2.09.16,2.09,2a24,24,0,0,0,0,4.16c.28,1.57-.85,2.41-1.41,3.53-.1.21-.66.27-1,.25l-17-1c-.86-.05-1.1-.45-1.07-1.24.06-1.44.07-2.88.1-4.31.07-2.42,1-3.38,3.34-3.52.91-.05,1.38-.37,1.34-1.34s-.8-.83-1.41-.82c-.84,0-1.67.08-2.5.16s-1.36-.14-1.4-1.18c-.1-2.59.74-3.67,3.37-3.82,5.09-.29,10.18-.52,15.28-.72,1.68-.06,1.5.09,1.63,1.73.12,1.48-1,2.1-1.47,3.18-.08.21-.75.23-1.16.25-1.85.07-3.71.1-5.56.17C44.75,465.31,43.93,465.41,43.07,465.48Z"/>
        <path d="M52.89,352.15l-15-.65h-.14c-3.71-.19-3.72-.19-3.63-3.86,0-.7.09-1.39.14-2.08.16-2.2,1.13-3.19,3.3-3.28.86,0,1.43-.2,1.43-1.24s-.74-1-1.43-.94c-.42,0-.84,0-1.25.06-2.56.23-2.54.23-2.68-2.26,0-.73.43-1,.82-1.47,1.29-1.59,3-1.15,4.52-1.26,4.4-.33,8.8-.49,13.2-.67a4,4,0,0,1,1.7.39,11.67,11.67,0,0,1-.59,3.23c-.69,1.81-2.39,1.36-3.81,1.44-1.58.09-3.15.2-4.73.25-.83,0-1.47.13-1.46,1.19s.66,1.27,1.56,1.27c2.74,0,5.48.06,8.22,0,1.22,0,1.68.4,1.59,1.62-.14,1.89-.05,3.81-.32,5.68A9,9,0,0,1,52.89,352.15Z"/>
        <path d="M54.73,446.06c-.11,1.47-.21,3.13-.37,4.79a10.14,10.14,0,0,1-4,6.92c-4,3.26-10.72.45-11.82-4.87a33.86,33.86,0,0,1-.56-4.83c-.06-1-.43-1.45-1.44-1.27h-.14c-2.63.2-3.12-.21-2.56-2.82A3.2,3.2,0,0,1,36,442.1a37.5,37.5,0,0,1,6.1-.31,4.22,4.22,0,0,0,3.62-1.53,1.28,1.28,0,0,1,.85-.37c2.18-.14,4.36-.24,6.54-.36,1-.06,1.31.38,1.33,1.32C54.48,442.52,54.62,444.18,54.73,446.06ZM44,446.55c-2-.21-2.32,0-2.07,1.85.17,1.23.14,2.63,2.07,3.05Z"/>
        <path d="M48.21,332.8c-1,0-2-.05-2.93,0s-1.2-.36-1.17-1.32c.08-2.59.11-5.19,0-7.76a4.49,4.49,0,0,0-1.16-2.59,3,3,0,0,0-2.32-.75,2.24,2.24,0,0,0-1.29,1.67c-.2,2.38-.16,4.79-.25,7.19a3.73,3.73,0,0,1-.71,2.74,2.28,2.28,0,0,1-2.42,1,1.79,1.79,0,0,1-1.33-.91c-1.47-4-1.95-8.2.66-11.88s6-6.15,10.87-5.8c4.59.32,8.83,4.26,9,8.86a20.82,20.82,0,0,1-.37,5.11c-.55,2.64-1.74,4.93-5.47,4.43a8.21,8.21,0,0,0-1.11,0Z"/>
        <path d="M54.37,408.64a26.39,26.39,0,0,0,.05,4.45c.29,1.68-.77,2.65-1.5,3.83-.1.16-.5.18-.76.18-2.19,0-4.37-.13-6.55-.12-1.17,0-1.6-.5-1.48-1.6a5.23,5.23,0,0,0,0-.56c-.11-3.69.59-3.13-3.33-3.07-2,0-4.08.12-6.13.21-.87,0-1.32-.25-1.24-1.18,0-.46,0-.93,0-1.39a2.87,2.87,0,0,1,3-3c1.9,0,3.8.17,5.7.17,1.67,0,1.84-.24,1.77-1.86A3.16,3.16,0,0,1,46.67,402c2.17-.18,4.35-.31,6.52-.51,1-.09,1.24.34,1.23,1.21,0,2,0,4,0,6Z"/>
        <path d="M48.77,382.6c-.83-.05-1.66-.14-2.5-.13-1.14,0-2.16,0-2.05-1.61,0-.21-.52-.66-.8-.66a36.22,36.22,0,0,0-4.3.24,2.48,2.48,0,0,0-2,1.25c-.31.51-1.73.46-2.64.43-.3,0-.76-.72-.82-1.15a18.16,18.16,0,0,1-.28-4.69c.1-.73,1.17-1.44,2-1.91a3.42,3.42,0,0,1,2-.25c.4.05.75.55,1.11.87s.72.95,1.06.94c1.83,0,3.82.28,5.33-1,2.67-2.2,5.9-1,8.82-1.67.23-.05.87.58.87.89,0,2.08-.11,4.16-.3,6.24-.09,1-1.88,2.28-2.87,2.27H48.77Z"/>
      </g>
    </g>
    <g>
      <g>
        <path class="cls-3" d="M45.27,594.85c-4.58-.15-8.16-2-10.17-6.26a10.17,10.17,0,0,1,2.42-11.54,13.26,13.26,0,0,1,5.95-3.25,12,12,0,0,1,5.74.09,7.82,7.82,0,0,1,5.6,5.75,14.48,14.48,0,0,1,.11,8.2,9.43,9.43,0,0,1-8.93,7Zm-6.6-11.28c.16.93.22,1.63.4,2.31a4.94,4.94,0,0,0,2.36,3.24,2.1,2.1,0,0,0,2.49-.12,8.32,8.32,0,0,0,.07-8.83,2.47,2.47,0,0,0-4.39.43A24.27,24.27,0,0,0,38.67,583.57Z"/>
        <path class="cls-3" d="M46.75,551.16a8.34,8.34,0,0,1,4.3,1.05,7.9,7.9,0,0,1,3.73,4.8,15.24,15.24,0,0,1,.28,8,9.94,9.94,0,0,1-2.37,4.32,8.58,8.58,0,0,1-4.25,2.73c-5.69,1.55-11.69-1.08-13.6-6.5a10.31,10.31,0,0,1,3.85-11.88A12.32,12.32,0,0,1,46.75,551.16Zm-8.14,10.36a30.58,30.58,0,0,0,1,3.32,3.68,3.68,0,0,0,2.53,2.21,1.59,1.59,0,0,0,1.79-.41,8.4,8.4,0,0,0,.2-8.65c-1.29-1.93-3.54-1.84-4.52.26A26,26,0,0,0,38.61,561.52Z"/>
        <path class="cls-3" d="M56.09,548.63l-1,.12.21.55c-1.75,0-3.45,0-5.16,0-4.88-.09-9.76-.21-14.64-.29-.67,0-.93-.19-.88-.91.15-2.22.23-4.44.36-6.66A1.61,1.61,0,0,1,37,539.76c1.83.14,3.65.25,5.56.38l-3-3,3.78-4c-.39,0-.63,0-.87,0-2.27.09-4.54.17-6.81.31-.63,0-.86-.18-.88-.79,0-.84-.13-1.68-.18-2.53,0-.47.78-1.2,1.37-1.23,1.18-.05,2.36-.1,3.55-.13l10.86-.3c1.56,0,3.13-.16,4.69-.22a1.62,1.62,0,0,1,.58.18,1.55,1.55,0,0,1-.2.57c-1.33,1.58-2.68,3.16-4,4.74s-2.44,2.87-3.67,4.29a.63.63,0,0,0,0,.95q3,3.44,5.89,6.88C54.4,546.71,55.2,547.61,56.09,548.63Z"/>
        <path class="cls-3" d="M40.29,609.61,35,613.5c-.47-1.25-.9-2.39-1.3-3.55,0-.12.14-.4.29-.5,1.1-.77,2.22-1.51,3.34-2.25a1.57,1.57,0,0,1,.25-.14c2.14-1.26,2.14-1.28,2-3.75,0-.5-.19-.61-.66-.57-1.15.1-2.31.15-3.47.23-.47,0-.71-.11-.71-.64s-.09-1.35-.11-2c-.05-1.37.4-1.84,1.76-1.84l7.54,0c.58,0,1.09.08,1.21-.82.05-.39.78-.93,1.24-1,2.5-.25,5-.38,7.51-.53.93-.06,1,0,1,.93,0,2.78.14,5.55.14,8.33a12.37,12.37,0,0,1-1.71,6.43,7,7,0,0,1-11,1.66,7.91,7.91,0,0,1-1.92-3.28C40.46,610,40.39,609.88,40.29,609.61Zm2.88-4.52H43a18.64,18.64,0,0,0,.22,2.37,1.06,1.06,0,0,0,1.23.88c.62-.06.67-.59.69-1,0-1.37,0-2.75,0-4.12,0-.35,0-.83-.53-.71s-1.34-.29-1.44.65A16,16,0,0,0,43.17,605.09Z"/>
        <path class="cls-3" d="M45.27,628.16c0-1.52,0-3,0-4.56,0-.55-.11-.82-.72-.76s-1.06-.05-1,.81c.1,1.78.12,3.57.15,5.36a1.35,1.35,0,0,1-1.54,1.55c-1.78,0-1.78,0-1.75-1.78s0-3.29.09-4.93c0-.59-.09-.88-.78-.85s-.84.2-.82.85c.08,2.26.11,4.53.16,6.8,0,1.26-.49,1.78-1.75,1.79-.56,0-1.12,0-1.67,0s-.68-.17-.71-.67c-.11-2-.25-4-.37-6.07q-.21-3.51-.41-7a1.52,1.52,0,0,1,1.21-1.51c.89-.08,1.79-.1,2.68-.16.5,0,.79.13.76.68,0,.19.06.39.06.58,0,.46.21.69.65.66,1.78-.1,3.56-.2,5.34-.35.17,0,.33-.32.47-.5a6.28,6.28,0,0,0,.45-.69c.47-.85,1.32-.68,2-.74,2.17-.15,4.34-.23,6.51-.36.64,0,.85.19.82.83-.11,3.16-.19,6.32-.29,9.48a34.81,34.81,0,0,1-.17,3.54,6.11,6.11,0,0,0,0,1.91,1.64,1.64,0,0,1-1.77,1.81c-2.25-.09-4.49-.22-6.73-.29-.67,0-.94-.22-.91-.93,0-1.5,0-3,0-4.5Z"/>
      </g>
      <g>
        <path class="cls-3" d="M44.71,437.65c-5-.23-8.59-2.7-10.09-6.92a10.63,10.63,0,0,1,3.31-11.14c2.83-2.2,5.67-3.6,9.24-3.46a8.37,8.37,0,0,1,8.26,7.53,12.74,12.74,0,0,1-.92,8C52.32,435.87,49.19,437.88,44.71,437.65Zm.44-10.41a20.2,20.2,0,0,0-1.53-4c-1.06-1.71-3.11-1.43-3.91.41a6.37,6.37,0,0,0,.28,5.75,6.51,6.51,0,0,0,2.25,2.14,1.25,1.25,0,0,0,2-.78C44.56,429.71,44.79,428.64,45.15,427.24Z"/>
        <path class="cls-3" d="M40,393.7c0-1.25.08-2.5,0-3.73-.3-4,4.11-7.34,7.18-7.57.46,0,.92,0,1.38-.11a5.74,5.74,0,0,1,6.78,5c.6,3.59,0,7.11-.57,10.63-.18,1.15-2,2.33-3.18,2.24-2.44-.18-4.88-.34-7.42-.51.78-3.48,1.6-6.83.2-10.13l-.59,0c.11,1.11.19,2.22.33,3.32A5.86,5.86,0,0,1,43,397.84a4.24,4.24,0,0,1-4.49,1.74,5.2,5.2,0,0,1-4.15-3.87A19.16,19.16,0,0,1,34.86,385c.42-1.42,3-2.42,4.3-1.73.32.17.48.9.47,1.36-.09,2.48-.3,5-.38,7.46a6,6,0,0,0,.42,1.66Z"/>
        <path class="cls-3" d="M40.07,366.39l-5.13,3.72c-.44-1.14-.88-2.1-1.17-3.1a1.21,1.21,0,0,1,.45-1,39.09,39.09,0,0,1,4.06-2.86c1.29-.73,1.33-1.8,1.17-3,0-.23-.55-.57-.85-.58a25.75,25.75,0,0,0-2.78.15c-.68.06-1.08-.14-1.06-.9,0-.41,0-.83-.06-1.25a2.79,2.79,0,0,1,2.41-2.79c1.66-.07,3.33-.11,5-.08a5.9,5.9,0,0,0,4.72-1.61c.38-.4,1.31-.29,2-.36,1.75-.17,3.51-.36,5.27-.4.41,0,1.2.56,1.2.86,0,4,.54,8.07-.46,12.06-.71,2.87-4.46,6.93-7.84,6.66-2.9-.23-4.94-1.39-6.2-4-.12-.25-.22-.51-.34-.77S40.27,366.8,40.07,366.39Zm4.27-2,.63-.17c0-1.41,0-2.81,0-4.22,0-.23-.36-.44-.56-.67-.22.25-.61.47-.64.74a14.69,14.69,0,0,0-.1,2.89A4.41,4.41,0,0,0,44.34,364.37Z"/>
        <path class="cls-3" d="M39.66,485.06a6.38,6.38,0,0,0-.31,1.45,22.39,22.39,0,0,0,.2,4A3.73,3.73,0,0,1,38.23,494c-.54.51-1.83.34-2.76.26-.26,0-.62-.83-.66-1.29-.26-3.85-.45-7.7-.66-11.54a3.1,3.1,0,0,1,2.27-2.78,4.66,4.66,0,0,1,1.66-.05,1.71,1.71,0,0,1,1.16.82,1.34,1.34,0,0,0,1.67,1.06c1.67-.17,3.5.11,4.9-1.08,2.58-2.17,5.72-1,8.57-1.56.94-.18,1,.72,1,1.46-.09,2.87-.18,5.75-.29,8.62-.06,1.72-.13,3.44-.23,5.15a2.75,2.75,0,0,1-3,2.67c-1.62-.08-3.24-.15-4.87-.2-2-.06-2-.06-2-1.95,0-2.46,0-4.93,0-7.39a3.94,3.94,0,0,0-.44-1.16,4,4,0,0,0-.58,1.21,5.12,5.12,0,0,0,.13,2.21c.65,1.73-.7,2.68-1.43,3.82-.2.31-1.23.2-1.83.06-.27-.06-.56-.68-.57-1.05,0-2,0-4.06,0-6.09Z"/>
        <path class="cls-3" d="M34.77,500.31c2.67-2.48,5.81-1.45,8.78-1.58a3.84,3.84,0,0,0,2.55-.85c1.18-1.43,2.73-.83,4.09-1.12a24.06,24.06,0,0,1,3.61-.2c1.08-.06,1.63.35,1.6,1.53a62.38,62.38,0,0,1-.08,7.37c-.33,2.4-.21,4.92-2,7.07-2.95,3.64-7,4.75-10.19,2.19-1.27-1-2.08-2.63-3.2-4.11l-4.89,3.52c-.45-1.2-.89-2.21-1.18-3.26a1.24,1.24,0,0,1,.5-1c1.24-.89,2.54-1.7,3.79-2.58a3.61,3.61,0,0,0,1.22-1.1c.86-1.66.14-2.72-1.69-2.62-3.3.18-2.84.43-3-2.76C34.74,500.62,34.77,500.39,34.77,500.31Zm9.8,8.2.67-.19c-.07-1.48-.12-3-.24-4.45,0-.18-.45-.47-.67-.46s-.61.33-.61.53a25.1,25.1,0,0,0,0,3.47C43.8,507.8,44.28,508.15,44.57,508.51Z"/>
        <path class="cls-3" d="M43.81,464.36c0,1.76.68,2.28,2.15,2.23,2.36-.08,4.73,0,7.1,0,1.94,0,2.08.15,2.08,2a24.15,24.15,0,0,0,0,4.17c.28,1.57-.85,2.4-1.41,3.53-.11.2-.67.26-1,.24-5.65-.3-11.3-.65-17-.95-.86-.05-1.1-.45-1.07-1.24.07-1.44.07-2.88.11-4.32.06-2.42,1-3.37,3.34-3.51.91-.05,1.38-.38,1.34-1.34s-.81-.84-1.42-.83c-.83,0-1.67.08-2.5.17s-1.36-.14-1.4-1.18c-.09-2.6.74-3.68,3.37-3.83q7.63-.42,15.28-.71c1.69-.07,1.5.09,1.63,1.72s-1,2.11-1.47,3.18c-.08.21-.75.24-1.16.25-1.85.08-3.71.1-5.56.17C45.49,464.19,44.67,464.29,43.81,464.36Z"/>
        <path class="cls-3" d="M53.63,351l-15-.65h-.14c-3.72-.19-3.72-.19-3.64-3.86,0-.69.09-1.38.14-2.08.16-2.19,1.13-3.18,3.31-3.28.85,0,1.42-.2,1.42-1.24s-.73-1-1.43-.94c-.42,0-.83,0-1.25.07-2.56.23-2.54.23-2.67-2.26,0-.73.42-1,.82-1.48,1.28-1.59,3-1.14,4.52-1.26,4.39-.33,8.8-.49,13.2-.66a4.1,4.1,0,0,1,1.7.39A12,12,0,0,1,54,337c-.69,1.81-2.39,1.36-3.82,1.45s-3.15.19-4.73.24c-.83,0-1.47.14-1.46,1.19s.66,1.28,1.57,1.27c2.74,0,5.48.07,8.22,0,1.21,0,1.67.39,1.58,1.61-.13,1.9,0,3.81-.31,5.69A9.14,9.14,0,0,1,53.63,351Z"/>
        <path class="cls-3" d="M55.47,444.94c-.11,1.47-.2,3.14-.37,4.8a10.15,10.15,0,0,1-4,6.92c-4,3.25-10.73.45-11.82-4.88a32.51,32.51,0,0,1-.57-4.82c-.06-1-.42-1.46-1.44-1.28h-.14c-2.63.2-3.12-.2-2.55-2.82A3.2,3.2,0,0,1,36.74,441a40.09,40.09,0,0,1,6.11-.31,4.16,4.16,0,0,0,3.61-1.53,1.33,1.33,0,0,1,.86-.36c2.17-.14,4.35-.24,6.53-.37,1-.06,1.31.39,1.33,1.32C55.23,441.4,55.36,443.07,55.47,444.94Zm-10.69.49c-2-.21-2.32,0-2.07,1.86.17,1.22.15,2.62,2.07,3Z"/>
        <path class="cls-3" d="M49,331.68c-1,0-2-.05-2.92,0s-1.2-.36-1.18-1.32c.08-2.58.11-5.18-.05-7.76A4.49,4.49,0,0,0,43.64,320a3,3,0,0,0-2.32-.74A2.26,2.26,0,0,0,40,320.94c-.2,2.39-.16,4.79-.24,7.19a3.84,3.84,0,0,1-.71,2.75,2.26,2.26,0,0,1-2.42,1,1.8,1.8,0,0,1-1.34-.9c-1.46-4-2-8.2.67-11.88s6-6.15,10.86-5.81c4.59.32,8.84,4.27,9,8.86a20.78,20.78,0,0,1-.36,5.11c-.55,2.65-1.75,4.94-5.47,4.43a8.37,8.37,0,0,0-1.12,0Z"/>
        <path class="cls-3" d="M55.11,407.52a26.39,26.39,0,0,0,0,4.45c.29,1.69-.77,2.66-1.5,3.83-.1.16-.5.19-.76.18-2.18,0-4.36-.13-6.55-.12-1.17,0-1.6-.49-1.48-1.6a3.49,3.49,0,0,0,0-.56c-.11-3.68.59-3.13-3.33-3.07-2,0-4.08.12-6.12.22-.87,0-1.32-.25-1.25-1.18,0-.47,0-.93,0-1.4a2.89,2.89,0,0,1,3-3c1.9,0,3.8.17,5.7.18,1.67,0,1.85-.24,1.77-1.87a3.18,3.18,0,0,1,2.74-2.79c2.18-.17,4.35-.31,6.53-.51.94-.08,1.24.35,1.23,1.21,0,2,0,4,0,6Z"/>
        <path class="cls-3" d="M49.52,381.48c-.84,0-1.67-.14-2.5-.13-1.14,0-2.17,0-2.05-1.61,0-.21-.53-.65-.81-.65a36.44,36.44,0,0,0-4.3.23,2.48,2.48,0,0,0-2,1.25c-.32.52-1.73.46-2.65.43-.29,0-.76-.71-.82-1.14a18.21,18.21,0,0,1-.28-4.7c.1-.72,1.17-1.44,2-1.9a3.42,3.42,0,0,1,2-.26c.4.06.76.56,1.12.87s.71.95,1.06.95c1.82,0,3.81.27,5.32-1,2.67-2.2,5.9-1.06,8.83-1.67.23-.05.86.57.86.88,0,2.08-.11,4.17-.3,6.24-.09,1-1.87,2.28-2.87,2.27H49.52Z"/>
      </g>
    </g>
  </g>
</svg>
