<svg id="Layer_1" data-name="Layer 1" xmlns="http://www.w3.org/2000/svg" viewBox="0 0 127 728">
  <defs>
    <style>
      .cls-1, .cls-2 {
        fill: #fff;
      }

      .cls-2, .cls-3 {
        stroke: #000;
        stroke-miterlimit: 10;
        stroke-width: 4px;
      }

      .cls-3 {
        fill: none;
      }

      .cls-4 {
        fill: #f9e638;
      }

      .cls-5 {
        fill: #f74239;
      }
    </style>
  </defs>
  <title>book</title>
  <polygon class="cls-1" points="127 728 0 728 0 0 74.37 0 127 0 127 728"/>
  <polyline class="cls-2" points="23.42 0 23.42 39 0 39"/>
  <polyline class="cls-3" points="47.55 0 47.55 19 72 19 72 104 23 104 23 124 0 124"/>
  <polyline class="cls-3" points="47 39 47 83 0 83"/>
  <line class="cls-3" x1="23" y1="39" x2="23" y2="61"/>
  <polyline class="cls-3" points="99.25 0 99.25 39 127 39"/>
  <polyline class="cls-3" points="127 61 99 61 99 124 23 124"/>
  <polyline class="cls-3" points="47 124 47 165 99 165 99 219 127 219"/>
  <line class="cls-3" x1="72" y1="145" x2="127" y2="145"/>
  <polyline class="cls-3" points="47 143.66 23 143.66 23 200 0 200"/>
  <polyline class="cls-3" points="72 165 72 244 99 244 99 269 47 269 47 184"/>
  <polyline class="cls-3" points="23 223 23 288 0 288"/>
  <polyline class="cls-3" points="0 314.24 47 314.24 47 288 72 288 72 380 23 380 23 338 0 338"/>
  <line class="cls-3" x1="47" y1="338" x2="47" y2="380"/>
  <polyline class="cls-3" points="127 288 99 288 99 338 127 338"/>
  <polyline class="cls-3" points="99 359 99 414 23 414 23 440 47 440 47 465 73 465 73 440 127 440"/>
  <polyline class="cls-3" points="23 465 23 487 0 487"/>
  <polyline class="cls-3" points="75 491 102 491 102 465 127 465"/>
  <polyline class="cls-3" points="47 491 47 535 23 535 23 595 75 595 75 555 101 555 101 516 127 516"/>
  <line class="cls-3" x1="25" y1="571" x2="48" y2="571"/>
  <line class="cls-3" x1="75" y1="516" x2="75" y2="555"/>
  <line class="cls-3" y1="512.32" x2="25" y2="512.32"/>
  <polyline class="cls-3" points="127 595 101 595 101 648 48 648 48 622 75 622"/>
  <polyline class="cls-3" points="23 622 23 648 23 690 48 690 48 728"/>
  <line class="cls-3" x1="23" y1="713" y2="713"/>
  <polyline class="cls-3" points="75 648 75 668 101 668 101 697 127 697"/>
  <polyline class="cls-3" points="75 728 75 668 48 668"/>
  <circle class="cls-4" cx="61" cy="73" r="38"/>
  <circle cx="63" cy="255" r="38"/>
  <circle class="cls-5" cx="64" cy="451" r="38"/>
  <circle class="cls-4" cx="64" cy="652" r="38"/>
  <g>
    <path class="cls-5" d="M69.59,81.13V66.19s.09-.1.12-.1a52.93,52.93,0,0,1,7.36.29c3.44.6,5.66,4,5.45,7.66s-2.78,6.73-6.31,7C74,81.3,71.82,81.13,69.59,81.13Zm7.47-7.26v-.34c-.3-.2-.56-.52-.88-.59-.48-.1-.75.28-.78.73a.67.67,0,0,0,.75.76C76.48,74.39,76.76,74.07,77.06,73.87Z"/>
    <path class="cls-5" d="M37.18,76l3,5.27H38.87c-1.34,0-2.68,0-4,0a.89.89,0,0,1-.91-.51,9,9,0,0,0-1.15-1.63v2.09H26.93V66.06c.77,0,1.51,0,2.25,0,1.55,0,3.11-.06,4.66.08a5.31,5.31,0,0,1,4.73,3.63,5.51,5.51,0,0,1-1.1,5.88Zm-2.76-4v-.35a2.9,2.9,0,0,0-.86-.58c-.48-.1-.75.25-.77.72a.66.66,0,0,0,.73.76C33.84,72.51,34.12,72.18,34.42,72Z"/>
    <path class="cls-5" d="M50.32,75.36c-.89,0-1.72,0-2.55,0-.17,0-.33.2-.49.31.16.09.32.26.48.26,1.55,0,3.11,0,4.76,0-.36,1.25-.7,2.45-1.05,3.65-.49,1.64-.49,1.64-2.22,1.64h-7.8V66.1c.22,0,.42,0,.63,0,2.75,0,5.5,0,8.25,0a.72.72,0,0,1,.84.63c.42,1.54.89,3.06,1.36,4.65H47.38c-.19.41-.14.62.33.62h2.61Z"/>
    <path class="cls-5" d="M86.53,81.19c0-1.85,0-3.66,0-5.48a2.73,2.73,0,0,0-.26-1.16c-1.32-2.78-2.67-5.54-4-8.36a1.46,1.46,0,0,1,.35-.1c1.79,0,3.59,0,5.38,0a.77.77,0,0,1,.57.37c.4.73.74,1.49,1.17,2.38.45-.84.82-1.6,1.25-2.32a.88.88,0,0,1,.56-.43c1.79,0,3.58,0,5.49,0-.13.31-.22.54-.33.76C95.43,69.42,94.18,72,93,74.59a2.41,2.41,0,0,0-.23,1c0,1.84,0,3.68,0,5.58Z"/>
    <path class="cls-5" d="M68.19,81.23H62.32c-.35-.78-.67-1.58-1.07-2.34a1.06,1.06,0,0,0-.7-.39c-.33,0-.7-.1-.88.37a19.19,19.19,0,0,1-.88,2,.77.77,0,0,1-.54.4c-1.8,0-3.59,0-5.51,0l7.74-16.09Zm-7.88-5.15h.34c.2-.29.53-.56.58-.88a.67.67,0,0,0-.74-.76c-.46,0-.83.28-.76.75S60.11,75.78,60.31,76.08Z"/>
  </g>
  <g>
    <path class="cls-1" d="M94,259.9c-1.55,0-3,0-4.46,0-.14,0-.31-.18-.41-.32a10.88,10.88,0,0,0-1-1.35v1.65H83.52v-12a.83.83,0,0,1,.21-.06c1.62,0,3.24-.05,4.85,0a4.55,4.55,0,0,1,3.28,7.63l-.2.24Zm-4.54-7.36v-.27a2.29,2.29,0,0,0-.69-.47c-.38-.08-.6.2-.62.57a.54.54,0,0,0,.59.61C89,253,89.22,252.69,89.46,252.54Z"/>
    <path class="cls-1" d="M73.58,259.89v-12a1.71,1.71,0,0,1,.3,0q3.45,0,6.9,0c.15,0,.4.11.44.23.4,1.29.78,2.6,1.18,3.95-1.28,0-2.5,0-3.71,0-.16,0-.31.15-.47.23.16.08.31.23.47.23.64,0,1.28,0,2,0v2.71c-.69,0-1.36,0-2,0-.13,0-.25.14-.38.21.13.08.26.24.39.24,1.24,0,2.47,0,3.79,0l-.94,3.18c-.3,1-.31,1-1.4,1H73.58Z"/>
    <path class="cls-1" d="M35.29,257v2.91H30.67v-12s.08-.07.11-.07c1.83,0,3.66-.08,5.47.07a4.44,4.44,0,0,1,4,4.63,4.56,4.56,0,0,1-4.46,4.39Zm1.33-4.47c-.13-.51-.34-.71-.72-.71a.55.55,0,0,0-.58.63.53.53,0,0,0,.62.57C36.19,252.94,36.4,252.66,36.62,252.49Z"/>
    <path class="cls-1" d="M69,259.87H64.11c0-1.37,0-2.71,0-4.05a4.11,4.11,0,0,0-.34-1.52c-.91-2-1.88-3.93-2.83-5.9l-.25-.55h1c1.16,0,2.32,0,3.48,0a.53.53,0,0,1,.59.38c.26.58.56,1.15.89,1.83.35-.67.64-1.26,1-1.83.09-.15.29-.35.43-.36,1.44,0,2.88,0,4.4,0-.1.24-.16.41-.24.57-1,2.05-2,4.1-3,6.15a2,2,0,0,0-.2.87C69,256.9,69,258.36,69,259.87Z"/>
    <path class="cls-1" d="M62.66,259.9c-1.53,0-3,0-4.41,0a.57.57,0,0,1-.39-.3,12.57,12.57,0,0,1-.65-1.45.59.59,0,0,0-.67-.44.64.64,0,0,0-.73.46,11.67,11.67,0,0,1-.62,1.4.69.69,0,0,1-.48.33c-1.41,0-2.81,0-4.33,0l6.15-12.79Zm-6-5.51h-.26c-.15.23-.41.46-.43.71a.52.52,0,0,0,.61.58c.39,0,.64-.27.57-.62S56.8,254.61,56.63,254.39Z"/>
    <path class="cls-1" d="M45.92,247.87v7.8H50.1c-.3,1-.57,2-.85,2.92-.39,1.3-.39,1.3-1.76,1.3H41.3v-12Z"/>
  </g>
  <g>
    <path class="cls-4" d="M58.22,451.13a8.27,8.27,0,1,1-8.09-8.4A8.23,8.23,0,0,1,58.22,451.13Zm-8.4.89h.33c.22-.33.56-.63.61-1s-.31-.8-.82-.79a.72.72,0,0,0-.78.84C49.22,451.42,49.59,451.71,49.82,452Z"/>
    <path class="cls-4" d="M59.7,442l6.9,5.24v-4.3h6.55v17.17L66,454.64v4.46H59.7Z"/>
    <path class="cls-4" d="M85.77,448.54c-1.5,0-2.91,0-4.31,0-.22,0-.43.19-.64.3.21.11.41.31.62.31.86,0,1.73,0,2.64,0v3.66c-.92,0-1.84,0-2.75,0-.17,0-.34.18-.51.27.17.12.35.33.53.34,1.45,0,2.9,0,4.6,0-.17,1.18-.28,2.28-.5,3.35-.16.77-.28,1.76-.8,2.17s-1.46.13-2.22.14H74.58V443c.25,0,.49,0,.74,0,2.91,0,5.83,0,8.75,0,.51,0,.77.11.91.65.37,1.48,1,2.9.83,4.48C85.79,448.17,85.79,448.32,85.77,448.54Z"/>
  </g>
  <g>
    <path d="M54.33,649V636l5.25,4v-3.22h5v13l-5.46-4.15V649Z"/>
    <path d="M77.45,665.39,72,661.22v3.41H67.21v-13l5.25,4v-3.24h5Z"/>
    <path d="M53.28,649.05H48.71a.5.5,0,0,1-.33-.23c-.34-.51-.66-1-1.06-1.67V649H42.55V636.77a2.2,2.2,0,0,1,.36,0c1.56,0,3.12,0,4.69,0a4.57,4.57,0,0,1,4.65,3.85,4.47,4.47,0,0,1-1.11,3.88l-.22.25s0,0,0,.07Zm-4.72-7.69a.64.64,0,0,0-.64-.62.63.63,0,0,0-.61.65.63.63,0,0,0,1.25,0Z"/>
    <path d="M50.15,656l-5.08,2.24c-.52-.39-.85-.43-1.12-.12a.65.65,0,0,0,0,.87c.29.28.64.22,1-.18l5,2.39c-.56,2.12-3.63,3.84-6.33,3.56a6.29,6.29,0,0,1-.46-12.43A6.18,6.18,0,0,1,50.15,656Z"/>
    <path d="M32.41,649V636.75l.43,0c2.31,0,4.62,0,6.93,0a.47.47,0,0,1,.54.41c.33,1.19.7,2.38,1,3.57l.07.28H37.2v.51h2.46v2.76H37.2v.48h4.24c-.21.75-.41,1.45-.62,2.14s-.38,1.24-.55,1.87c-.06.19-.12.3-.36.3H32.56Z"/>
    <path d="M73,644.25H70.49v.49h4.25c-.22.74-.42,1.44-.62,2.14s-.38,1.24-.56,1.86c-.06.2-.13.3-.36.3H65.89l-.18,0V636.73h.43c2.31,0,4.62,0,6.93,0a.48.48,0,0,1,.54.41c.33,1.19.69,2.36,1,3.54a3,3,0,0,1,.08.32H70.5v.5H73Z"/>
    <path d="M78.57,664.65V652.37l.46,0c2.29,0,4.59,0,6.89,0a.49.49,0,0,1,.56.43c.36,1.26.74,2.52,1.13,3.83H83.36v.5h2.46v2.76H83.37l0,.49h4.25c0,.14,0,.24-.07.34-.36,1.22-.71,2.44-1.09,3.65a.49.49,0,0,1-.33.3C83.6,664.65,81.11,664.65,78.57,664.65Z"/>
    <path d="M84.91,638.72l-1.6,1.5-.12-.19a.57.57,0,0,0-.71-.27.92.92,0,0,0-.45.42.57.57,0,0,0,.27.72,4.59,4.59,0,0,1,1.62,1.74A4.5,4.5,0,0,1,81,649a4.86,4.86,0,0,1-5.15-1.69L77.34,646a.42.42,0,0,1,.29,0,.68.68,0,0,0,.92-.3.61.61,0,0,0-.3-.84,4.41,4.41,0,0,1-2.1-3.41,4.56,4.56,0,0,1,3.71-4.79A4.85,4.85,0,0,1,84.91,638.72Z"/>
    <path d="M93.5,649h-5v-8H86l1-4.25.42,0c2.4,0,4.81,0,7.22,0,.32,0,.45.09.52.42.27,1.26.58,2.52.89,3.83H93.5Z"/>
    <path d="M56,652.37v8h4.27c-.21.74-.41,1.42-.61,2.1s-.38,1.3-.59,1.94a.4.4,0,0,1-.29.25c-2.5,0-5,0-7.53,0V652.37Z"/>
    <path d="M61.4,652.36h4.72v12.26H61.4Z"/>
  </g>
</svg>
