<svg data-name="Layer 1" xmlns="http://www.w3.org/2000/svg" viewBox="0 0 387 222"><path d="M25.36 53.93A28.6 28.6 0 1 1 54 82.53a28.68 28.68 0 0 1-28.64-28.6zM79 103.43H28.22V90.67H79zm-40.88-49.5A15.84 15.84 0 1 0 54 38.09a15.77 15.77 0 0 0-15.88 15.84zm72.71-27.5c18.7 0 45 4.29 45 38.5 0 32.89-25.85 38.5-45 38.5H98v-77zm32 38.5c0-30.8-32-26-32-26v51.96s32.01 4.4 32.01-25.96zm28.27-38.5H184v77h-12.9zm94.6 77h-13l-38.26-54.78v54.78h-12.87v-77h13l38.39 54.78V26.43h12.74zm87.01 0l-9.13-9.13c-10.78 13.64-32.89 12-42-.77-7.59-10.78-5.39-24.64 4.95-33.66a19.26 19.26 0 1 1 31.68-14.74 19.41 19.41 0 0 1-9.57 16.72L340.28 74V59.1h20.46v11.55h-9.68v6.6a17.34 17.34 0 0 1-1 5.39l11.78 11.66zM312.45 85.5c4.62 6.27 16.39 7.59 22-.33L316.63 67.9c-6.05 4.1-8.91 11.33-4.18 17.6zm-.55-40.37a7 7 0 1 0 14.08 0 7 7 0 0 0-14.08 0zM25.36 146.93A28.6 28.6 0 1 1 54 175.53a28.68 28.68 0 0 1-28.64-28.6zM79 196.43H28.22v-12.76H79zm-40.92-49.5A15.84 15.84 0 1 0 54 131.09a15.77 15.77 0 0 0-15.88 15.84zm57.13 28.16h12.87c.22 6.38 5.5 9.57 11.22 9.57 5.94 0 11.22-3.85 11.22-9.9 0-6.49-6.05-10.45-11.22-10.67a29.49 29.49 0 0 1-11.55-2.53c-8-3.74-12.54-10.56-12.54-19.69 0-14.63 11.66-23.54 24.09-23.54 13.31 0 23.54 9 23.76 22.11H130.3c-.22-6.38-5.17-9.24-11-9.24-6 0-11.22 3.52-11.22 10.67 0 6.38 5.5 9.79 11.22 9.79a29.11 29.11 0 0 1 11.44 2.53c8.14 3.74 12.54 11.44 12.54 20.57 0 14.74-11.55 22.77-24 22.77-13.28-.33-23.85-8.03-24.07-22.44zM226 152.65v43.89h-11.22l-.66-7c-6.27 5.83-12.76 8-21.89 8-20.68 0-36.85-14.41-36.85-39.6 0-22.88 17.27-39.6 38.5-39.6a37.87 37.87 0 0 1 27.17 11.33l-9 9a25.7 25.7 0 0 0-18.15-7.48c-14.19 0-25.63 9.9-25.63 26.73 0 18.81 11.44 26.73 25.63 26.73a25.38 25.38 0 0 0 19.23-8.65v-12h-20.46v-11.35zm52.24 34.87h-27.06l-3.3 8.91H234l30.69-79.2 30.8 79.2h-13.84zm-22.88-11.11h18.7l-9.35-26.73zm89.21 20.02l-20-32.12h-7.37v32.12h-12.89v-44.88h12.21l-12.21-19.25v-12.87h25.63s25.74 0 25.74 22.44c0 13.64-9.46 19-16.94 21.12l20.9 33.44zm-13-45c3.41-.33 11.22-2 11.22-9.57 0-9.57-12.87-9.57-12.87-9.57H319.6z"/><path d="M387 222H0V0h387zM13 209h361V13H13z"/></svg>