<svg data-name="Layer 1" xmlns="http://www.w3.org/2000/svg" viewBox="0 0 526.8 245.3"><path d="M69.06 62.58L79.87 5.41h16.5L78.55 85.75H61.88L48.81 32 35.73 85.75H19.07L1.25 5.41h16.49l10.87 57.06L41.86 5.41h14zM130 86.85q-13.14 0-21.38-8t-8.22-21.52v-1.54a36 36 0 0 1 3.47-16.08 25.54 25.54 0 0 1 9.85-10.93A27.63 27.63 0 0 1 128.26 25q12.26 0 19.28 7.72t7 21.91v6.51h-38a14.83 14.83 0 0 0 4.67 9.38 14.09 14.09 0 0 0 9.86 3.48q9.23 0 14.4-6.68l7.84 8.77A23.87 23.87 0 0 1 143.6 84a31.77 31.77 0 0 1-13.6 2.85zm-1.82-49a9.94 9.94 0 0 0-7.7 3.22q-3 3.21-3.78 9.2h22.18v-1.33c-.07-3.54-1-6.29-2.87-8.23s-4.42-2.91-7.8-2.91zm89.24 18.6q0 14.35-6.12 22.38t-17.1 8a18.63 18.63 0 0 1-15.51-7.45l-.69 6.37h-14.37V1h15.94v30.4a18.18 18.18 0 0 1 14.52-6.4q10.92 0 17.13 8t6.2 22.6zm-15.94-1.16q0-9-2.87-13.21t-8.55-4.17q-7.62 0-10.49 6.24v23.56Q182.5 74 190.17 74t10.15-7.62q1.16-3.63 1.16-11.09zM6.49 221.35V141h24.72a37.55 37.55 0 0 1 18.95 4.78 33.28 33.28 0 0 1 13.05 13.57 41.94 41.94 0 0 1 4.69 20v3.7A42 42 0 0 1 63.29 203a33 33 0 0 1-13 13.51 37.86 37.86 0 0 1-18.93 4.86zM23 154.42v53.63h8q9.72 0 14.84-6.34t5.25-18.16v-4.24q0-12.26-5.08-18.57t-14.84-6.32zm83.36 68.03q-13.14 0-21.38-8t-8.25-21.47v-1.54a36 36 0 0 1 3.47-16.08 25.54 25.54 0 0 1 9.85-10.93 27.63 27.63 0 0 1 14.54-3.83q12.25 0 19.28 7.72t7 21.91v6.51h-38a14.85 14.85 0 0 0 4.67 9.38 14.09 14.09 0 0 0 9.84 3.53q9.22 0 14.4-6.68l7.84 8.77a23.87 23.87 0 0 1-9.71 7.92 31.77 31.77 0 0 1-13.55 2.79zm-1.82-49a9.94 9.94 0 0 0-7.7 3.22q-3 3.21-3.78 9.2h22.18v-1.28q-.1-5.32-2.87-8.23t-7.83-2.96zm57.05 28.42l11.09-40.22h16.66l-20.14 59.7H154l-20.14-59.7h16.64zm61.52 20.58q-13.14 0-21.38-8t-8.25-21.47v-1.54a36 36 0 0 1 3.52-16.13 25.45 25.45 0 0 1 9.84-10.93 27.63 27.63 0 0 1 14.54-3.83q12.25 0 19.29 7.72t7 21.91v6.51h-38a14.85 14.85 0 0 0 4.67 9.38 14.1 14.1 0 0 0 9.85 3.53q9.21 0 14.4-6.68l7.83 8.77a23.87 23.87 0 0 1-9.71 7.92 31.77 31.77 0 0 1-13.6 2.84zm-1.82-49a9.94 9.94 0 0 0-7.7 3.22q-3 3.21-3.78 9.2H232v-1.28q-.11-5.32-2.87-8.23t-7.84-2.96zm52.25 47.9h-16V136.6h16zM284.19 191a35.46 35.46 0 0 1 3.42-15.84 25.05 25.05 0 0 1 9.85-10.76 28.69 28.69 0 0 1 14.92-3.8q12.09 0 19.73 7.39t8.52 20.01l.11 4.09q0 13.74-7.67 22t-20.58 8.3q-12.9 0-20.61-8.27t-7.69-22.51zm15.94 1.13q0 8.5 3.2 13a11.49 11.49 0 0 0 18.21.06q3.25-4.46 3.26-14.23 0-8.34-3.26-12.93a10.58 10.58 0 0 0-9.16-4.59 10.42 10.42 0 0 0-9.05 4.56q-3.19 4.52-3.2 14.08zm104.17-.08q0 13.8-6.26 22.1a20.06 20.06 0 0 1-16.91 8.3q-9 0-14.62-6.29v28.14h-15.95v-82.65h14.79l.55 5.85a18.73 18.73 0 0 1 15.1-6.95q11 0 17.16 8.16t6.12 22.51zm-15.94-1.16q0-8.32-2.95-12.85a9.62 9.62 0 0 0-8.58-4.53q-7.5 0-10.32 5.74v24.44q2.92 5.91 10.43 5.91 11.42 0 11.42-18.71zm53.3 31.56q-13.14 0-21.38-8T412 192.93v-1.54a36 36 0 0 1 3.48-16.08 25.51 25.51 0 0 1 9.84-10.93 27.63 27.63 0 0 1 14.54-3.83q12.25 0 19.29 7.72t7 21.91v6.51h-38a14.79 14.79 0 0 0 4.66 9.38 14.1 14.1 0 0 0 9.85 3.53q9.21 0 14.4-6.68l7.83 8.77a23.87 23.87 0 0 1-9.71 7.92 31.74 31.74 0 0 1-13.52 2.84zm-1.82-49a9.94 9.94 0 0 0-7.7 3.22q-3 3.21-3.78 9.2h22.18v-1.28q-.1-5.32-2.87-8.23t-7.83-2.96zm68.97 3.15a44.12 44.12 0 0 0-5.74-.44q-9 0-11.86 6.13v39.06h-15.95v-59.7h15.06l.45 7.12q4.8-8.22 13.29-8.22a17 17 0 0 1 5 .71zm-1.05 36.91a8.06 8.06 0 0 1 2.57-6.18 10 10 0 0 1 12.91 0 8 8 0 0 1 2.56 6.18 7.88 7.88 0 0 1-2.54 6.1 10.11 10.11 0 0 1-13 0 7.92 7.92 0 0 1-2.5-6.1z" fill="none" stroke="#000" stroke-miterlimit="10" stroke-width="2"/></svg>